<?xml version="1.0" encoding="UTF-8"?>
<svg id="Layer_1" xmlns="http://www.w3.org/2000/svg" viewBox="0 0 32 32">
  <defs>
    <style>
      .cls-1 {
        fill: #231f20;
      }

      .cls-2 {
        fill: #ffdd9b;
      }
    </style>
  </defs>
  <g>
    <rect class="cls-2" x="5.19" y="5.19" width="21.63" height="21.63" transform="translate(-6.63 16) rotate(-45)"/>
    <path class="cls-1" d="M16,1.41l14.59,14.59-14.59,14.59L1.41,16,16,1.41M16,0L0,16l16,16,16-16L16,0h0Z"/>
  </g>
  <g>
    <rect class="cls-1" x="8.19" y="10.94" width="15.62" height="15.62" transform="translate(-8.57 16.81) rotate(-45)"/>
    <path class="cls-2" d="M16,8.41l10.1,10.1.23.23-10.34,10.34-10.34-10.34.23-.23,10.1-10.1M16,7l-10.81,10.81-.94.94,11.75,11.75,11.75-11.75-.94-.94-10.81-10.81h0Z"/>
  </g>
  <path class="cls-2" d="M16.24,18.4c-.55,0-1.1,0-1.66,0-.48,0-.6.14-.56.62.04.51.08,1.01.13,1.52.02.19-.05.31-.24.34-.13.02-.25.05-.38.05-.73,0-1.46-.02-2.2-.02-.24,0-.48.05-.73.06-.34.02-.42-.14-.32-.46.36-1.12.71-2.24,1.04-3.37.13-.45.22-.91.33-1.36.06-.24.25-.23.43-.23.91,0,1.83.01,2.74.01,1.63,0,3.25.01,4.88.01.22,0,.45,0,.67-.03.28-.03.44.09.51.36.16.66.31,1.32.48,1.98.21.77.43,1.53.66,2.29.04.14.14.26.19.4.1.28-.04.43-.32.42-.91-.03-1.82-.05-2.73-.08-.04,0-.09,0-.13,0-.78-.06-.77-.12-.62-.72.11-.44.07-.93.06-1.39,0-.28-.19-.43-.49-.43-.58,0-1.17,0-1.75,0,0,0,0,.01,0,.02Z"/>
  <polygon class="cls-1" points="4.5 18.5 16 7 27.5 18.5 28.5 19.5 29.5 18.5 16 5 2.5 18.5 3.5 19.5 4.5 18.5"/>
</svg>