<?xml version="1.0" encoding="UTF-8"?>
<svg id="Layer_1" xmlns="http://www.w3.org/2000/svg" viewBox="0 0 32 32">
  <defs>
    <style>
      .cls-1 {
        fill: #83471f;
      }

      .cls-2 {
        fill: #231f20;
      }

      .cls-3 {
        fill: #ea823f;
      }
    </style>
  </defs>
  <circle class="cls-2" cx="16" cy="14.2" r="11.68"/>
  <path class="cls-1" d="M16,26.54c-6.81,0-12.35-5.54-12.35-12.35S9.19,1.85,16,1.85s12.35,5.54,12.35,12.35-5.54,12.35-12.35,12.35ZM16,3.18c-6.07,0-11.01,4.94-11.01,11.01s4.94,11.01,11.01,11.01,11.01-4.94,11.01-11.01S22.07,3.18,16,3.18Z"/>
  <path class="cls-1" d="M30,14.86c-.35,7.42-6.49,13.35-14,13.35S2.35,22.28,2,14.86H0c.35,8.52,7.39,15.35,16,15.35s15.65-6.83,16-15.35h-2Z"/>
  <path class="cls-3" d="M23.18,20.2c-.85-.05-1.69-.09-2.54-.15-.31-.02-.43-.21-.57-.49-.58-1.17-1.22-2.31-1.81-3.47-.37-.73-.69-1.48-1.03-2.23-.11-.26-.18-.51-.55-.53-.36-.03-.47.17-.61.44-.89,1.7-1.81,3.38-2.71,5.08-.08.15-.15.31-.19.47-.12.57-.52.74-1.04.75-1.02.03-2.04.07-3.06.09-.6.01-.86-.28-.7-.86.15-.52.37-1.03.57-1.54.25-.64.53-1.26.78-1.9.17-.42.33-.85.47-1.29.17-.52.34-1.05.49-1.58.14-.51.38-.91.91-1.09.35-.12.68-.27,1.03-.37.87-.27,1.42-.89,1.78-1.68.43-.93.81-1.88,1.24-2.8.17-.37.42-.7.65-1.04.21-.31.48-.18.65.01.36.42.85.59,1.34.78.97.37,1.25,1.24,1.47,2.14.19.77.38,1.55.6,2.32.18.64.37,1.29.62,1.9.21.5.47,1,.81,1.41.57.67,1.24,1.25,1.85,1.89.13.14.21.38.22.58.05.83.08,1.66.09,2.49,0,.46-.31.73-.76.68Z"/>
</svg>