<?xml version="1.0" encoding="UTF-8"?>
<svg id="Layer_1" xmlns="http://www.w3.org/2000/svg" viewBox="0 0 32 32">
  <defs>
    <style>
      .cls-1 {
        fill: #231f20;
      }

      .cls-2 {
        fill: #ffdd9b;
      }
    </style>
  </defs>
  <g>
    <rect class="cls-2" x="5.19" y="5.19" width="21.63" height="21.63" transform="translate(-6.63 16) rotate(-45)"/>
    <path class="cls-1" d="M16,1.41l14.59,14.59-14.59,14.59L1.41,16,16,1.41M16,0L0,16l16,16,16-16L16,0h0Z"/>
  </g>
  <path d="M16.23,18.43c-.7,0-1.4,0-2.1,0-.61,0-.76.17-.72.79.05.64.11,1.29.17,1.93.03.25-.06.39-.3.43-.16.03-.32.06-.48.06-.93,0-1.86-.03-2.78-.03-.31,0-.61.06-.92.08-.43.02-.54-.18-.41-.58.46-1.42.9-2.84,1.32-4.27.17-.57.28-1.15.41-1.73.07-.31.31-.29.54-.29,1.16,0,2.32.01,3.47.02,2.06,0,4.12.01,6.18.01.28,0,.57-.01.85-.04.36-.04.56.11.65.45.2.84.39,1.68.61,2.51.26.97.55,1.94.84,2.91.05.18.18.33.25.51.12.35-.05.55-.41.54-1.15-.04-2.31-.07-3.46-.1-.05,0-.11,0-.16,0-.98-.08-.97-.15-.78-.92.14-.56.08-1.17.07-1.76,0-.36-.24-.55-.62-.55-.74,0-1.48,0-2.22,0,0,0,0,.02,0,.03Z"/>
  <polygon class="cls-1" points="4.5 18.5 16 7 27.5 18.5 28.5 19.5 29.5 18.5 16 5 2.5 18.5 3.5 19.5 4.5 18.5"/>
</svg>