<?xml version="1.0" encoding="UTF-8"?>
<svg id="Layer_1" xmlns="http://www.w3.org/2000/svg" viewBox="0 0 32 32">
  <defs>
    <style>
      .cls-1 {
        fill: #fff;
      }

      .cls-2 {
        fill: #ef4136;
      }
    </style>
  </defs>
  <path class="cls-1" d="M17.59,24c-1.75,0-3.38-.88-4.37-2.35l-.98-1.46-.6.48c-.05.04-.11.09-.17.13-.78.52-1.56,1-2.32,1.42-.25.14-.54.21-.87.21-.23,0-.47-.03-.7-.1-.35-.1-.69-.22-1.01-.33-.44-.16-.85-.3-1.26-.39-2.17-.46-4.54-3.05-4.35-5.71.17-2.4,1.15-4.01,3.07-5.06.86-.47,1.82-.72,2.77-.72,1.17,0,2.31.36,3.29,1.05l.43.3.65-.52.11.08.41-.26c.1-.06.19-.11.28-.15.01,0,.03,0,.04-.01l.25-.1.32-.61-.02-.16.13-.05.03-.05.17.09.26-.81c.1-.33.33-.62.66-.87.02-.01.04-.03.06-.04l.03-.02c.51-.39.85-.63,1.34-.63.7,0,1.06.46,1.49,1.1,0,0,2.37,3.53,2.37,3.53l.61-.57c.13-.12.27-.24.43-.34.31-.2.62-.37.91-.52.28-.15.55-.29.78-.45.44-.3.85-.44,1.29-.44.47,0,.89.16,1.3.5l.19.16h.25c1.51.03,2.99.73,4.06,1.93,1.12,1.26,1.67,2.89,1.48,4.47-.24,2.12-1.44,3.8-3.36,4.73-.81.39-1.64.59-2.46.59-.7,0-1.41-.14-2.09-.43l-.49-.2-.33.42c-.28.35-.63.76-1.06,1.12-.82.68-1.89,1.06-3.01,1.06ZM25.16,17.69l-.69.62c.63,0,1.57-.48,1.88-1.12.55-1.14.35-1.99-.65-2.75-.02-.02-.05-.04-.08-.06l-.5-.35-.42.44c-.43.46-.82.75-1.41.75-.17,0-.34-.03-.53-.08l-1.9-.55,1.12,1.63c.17.25.34.5.51.74.53.76,1.13,1.2,1.84,1.33l.31-1.38.53.77ZM6.77,13.84c-.54,0-1.06.24-1.46.66-.66.7-.69,1.38-.6,1.82.1.52.43,1.01.93,1.38l.49.37.43-.44c.17-.17.35-.32.54-.44.31-.2.71-.32,1.06-.32.13,0,.26.02.38.05l1.84.48-1.08-1.56c-.2-.29-.4-.58-.6-.86-.5-.72-1.21-1.13-1.94-1.13Z"/>
  <g>
    <path class="cls-2" d="M21.7,20.06c-.63.75-1.11,1.52-1.78,2.07-1.62,1.35-4.41,1.02-5.81-1.07-1.5-2.24-2.99-4.48-4.53-6.69-1.34-1.91-3.64-2.08-5.04-.59-1.7,1.81-.91,4.26,1.23,5.23.43.2.95.2,1.29-.31.16-.23.37-.45.61-.6.18-.11.47-.2.65-.13.84.31,1.66.66,2.47,1.02.6.27.64.57.1.93-.72.49-1.47.95-2.24,1.37-.2.11-.53.09-.77.02-.79-.23-1.55-.57-2.34-.74-1.67-.35-3.66-2.48-3.51-4.59.13-1.87.83-3.28,2.52-4.21,2.2-1.2,4.79-.5,6.18,1.52,1.54,2.24,3.08,4.48,4.59,6.74,1.13,1.69,3.09,1.82,4.29.28.56-.71.68-1.91.06-2.82-1.11-1.63-2.23-3.26-3.35-4.88-.65-.94-1.29-1.88-1.99-2.78-.32-.41-.24-.66.12-.93.02-.01.04-.02.05-.04.81-.63.79-.62,1.37.24,1.9,2.83,3.8,5.67,5.74,8.48.6.87,1.41,1.56,2.52,1.77.98.18,2.6-.51,3.17-1.69.77-1.6.42-3.01-.96-4.05-.32-.25-.71-.44-1.09-.59-.47-.18-.78.13-1.07.46-.76.86-.76.84-1.76.42-.5-.21-1.05-.3-1.53-.54-.31-.15-.62-.43-.75-.72-.05-.12.32-.51.57-.67.55-.36,1.16-.62,1.7-.98.52-.35.94-.36,1.41.08.2.19.54.33.81.32,2.73-.08,5,2.57,4.7,5.22-.2,1.73-1.13,3.11-2.77,3.9-1.42.69-2.83.64-4.21-.12-.27-.15-.55-.26-.67-.32Z"/>
    <path class="cls-2" d="M17.71,19.09c.58.43.94.28.69-.27-.1-.23-.25-.43-.45-.75.32.17.51.27.7.37.05-.03.1-.06.14-.09-.06-.21-.07-.45-.19-.61-1.57-2.21-3.17-4.41-4.73-6.63-.12-.17-.08-.45-.12-.68.07-.03.14-.06.22-.08.43.59.87,1.16,1.28,1.76,1.17,1.72,2.33,3.45,3.49,5.17.21.31.43.62.56.96.32.9-.03,1.73-.86,2.18-.83.45-1.73.32-2.3-.45-.92-1.25-1.78-2.54-2.67-3.82-.73-1.06-1.47-2.12-2.19-3.19-.11-.16-.15-.36-.23-.55.05-.04.1-.08.15-.12.17.13.4.22.51.39,1.45,2.19,2.88,4.39,4.34,6.57.15.23.44.37.66.55.06-.06.12-.12.19-.17-.12-.24-.23-.49-.35-.73.34.3.69.6,1.17,1.02v-.85.02Z"/>
    <path class="cls-2" d="M16.55,18.88c-.92-1.29-1.84-2.59-2.77-3.88-.68-.95-1.37-1.9-2.06-2.86.24-.21.43-.45.66-.55.16-.06.49.02.58.15.58.81,1.12,1.66,1.68,2.5.73,1.1,1.47,2.2,2.19,3.32.32.49.58,1.02.87,1.53,0,0,.01-.02.01-.02-.19-.21-.4-.4-.56-.63-1.33-1.89-2.64-3.79-3.97-5.68-.22-.32-.51-.59-.76-.88-.05.03-.1.07-.14.1.04.13.06.29.13.4.98,1.47,1.98,2.93,2.94,4.42.43.67.79,1.39,1.19,2.08Z"/>
    <path class="cls-2" d="M17.75,17.86c-1.56-2.21-3.12-4.42-4.67-6.63.03-.06.06-.11.09-.17.18.1.44.15.54.3,1.06,1.56,2.11,3.14,3.15,4.72.37.56.71,1.12,1.06,1.69-.06.03-.11.05-.17.08Z"/>
  </g>
</svg>