<?xml version="1.0" encoding="UTF-8"?>
<svg id="Layer_1" xmlns="http://www.w3.org/2000/svg" viewBox="0 0 32 32">
  <defs>
    <style>
      .cls-1 {
        fill: #fff;
      }

      .cls-2 {
        fill: #ef4136;
      }
    </style>
  </defs>
  <path class="cls-1" d="M20.82,31c-.51,0-.86-.29-1.09-.48l-.04-.03c-.91-.75-1.33-1.59-1.29-2.59v-.23s-.14-.2-.14-.2l-.07-.1-.1-.06c-.16-.1-.31-.21-.45-.33l-.45-.39-.44.41c-.13.12-.24.21-.35.3-.22.17-.36.33-.44.49l-.2.41.17.18c.04.31-.02.72-.56,1.44-.56.74-1.09,1.13-1.58,1.17-.03,0-.07,0-.1,0-.51,0-1.05-.28-1.31-.69-.18-.28-.3-.81-.17-1.26l.31-1.12-1.12.3c-.14.04-.28.06-.42.06-.03,0-.05,0-.08,0-.34-.02-.67-.2-.93-.51-.27-.32-.39-.69-.35-1.03.06-.5.36-.88.56-1.12.16-.2.33-.34.46-.44h.02s.06-.06.09-.09c.45-.4.9-.59,1.4-.59.14,0,.29.02.43.05l.31.07.25-.2c.12-.09.24-.18.35-.25l.02-.02c.06-.04.12-.08.17-.12l.24-.18.03-.29c0-.08,0-.18,0-.29-.08-1.16-.1-2.3-.06-3.4.01-.26.08-.53.2-.8l.21-.46-.4-.32c-.23-.19-.48-.4-.73-.62-.4-.37-.8-.74-1.19-1.1l-.02-.02c-.53-.49-1.07-1-1.61-1.47-.55-.49-.81-1.09-.78-1.85.01-.32,0-.64,0-.98,0-.43-.01-.88.02-1.33l.02-.34-.27-.21c-.2-.16-.49-.41-.69-.75-.2-.34-.21-.69-.21-.92,0-.04,0-.06,0-.09v-.02s-.14-1.36-.14-1.36l-.3-.5,1.88-1.97.52.56,1.73-1.56-.74-.7.39-.68c.38-.67.76-1.23,1.49-1.23.63,0,1.05.47,1.42.88.28.31.57.6.88.91.35.35.74.74,1.1,1.16l.51.59.5-.61c.09-.11.16-.19.24-.26.47-.45.91-.91,1.38-1.41.25-.26.5-.53.75-.79.3-.31.67-.47,1.06-.47.45,0,.88.23,1.18.64l.04.06c.54.68.42,1.24.22,1.59l-.21.38,1.36,1.79.67-.72,2.3,2.06-.66.61-.05.94v.02s0,.07,0,.1v.02c.03.46-.02,1.03-.55,1.34-.59.34-.75.85-.6,1.86.24,1.63-.29,2.93-1.69,4.11-.94.79-1.85,1.61-2.62,2.31l-.36.33.2.44c.09.21.15.43.16.64.02.53.02,1.07.01,1.58,0,.19,0,.38,0,.56v1.74l.02.08c.02.06.07.23.16.36l.02.03c.13.16.29.31.48.45l.23.17.28-.05c.1-.02.2-.03.3-.03.94,0,2.51.73,2.74,1.84.14.65-.25,1.26-.51,1.52-.23.24-.54.35-.92.35-.1,0-.19,0-.29-.02l-1.04-.16.31,1.01c.03.09.05.19.05.28.02.24-.02.71-.49,1.17-.4.39-.8.47-1.06.47Z"/>
  <g>
    <path class="cls-2" d="M24.44,6.25c.24.22.47.42.76.68-.83.77-1.61,1.49-2.39,2.21.06.08.12.17.18.25.21-.1.44-.16.61-.31.23-.2.37-.53.63-.67.19-.11.5,0,.75,0-.01.24.06.62-.05.69-1.15.67-1.25,1.75-1.08,2.86.2,1.37-.31,2.33-1.34,3.2-1.75,1.47-3.41,3.05-5.11,4.58-.42.38-.64.79-.62,1.4.05,1.3.04,2.61,0,3.91,0,.26-.16.54-.31.76-.19.27-.44.5-.69.7-.64.51-1.01,1.1-.84,1.96.06.31-.9,1.48-1.23,1.51-.17.01-.42-.1-.5-.23-.09-.13-.09-.48,0-.54.74-.49.72-1.21.72-1.97,0-.21.22-.46.4-.64.35-.35.76-.63,1.1-.99.1-.1.04-.36.06-.54-.16.04-.36.04-.47.14-.4.36-.73.8-1.17,1.11-.29.21-.76.41-1.04.31-.57-.19-.89.05-1.26.37-.17.14-.42.27-.62.26-.13,0-.37-.29-.35-.43.03-.22.2-.44.35-.63.12-.16.31-.27.46-.4.33-.29.69-.44,1.13-.25.37.16.7.14,1.01-.18.21-.22.49-.38.73-.56.55-.41.71-.94.66-1.62-.08-1.09-.1-2.19-.05-3.28.01-.34.25-.74.5-1,.8-.81,1.66-1.55,2.47-2.34.17-.16.29-.46.29-.69,0-3.37,0-6.74-.03-10.11,0-.51.12-.89.5-1.25.75-.71,1.43-1.48,2.15-2.22.26-.26.52-.22.73.06.17.23.44.44.03.77-.65.53-1.25,1.12-1.86,1.69-.09.08-.09.24-.14.37.15,0,.34.06.44-.01.23-.17.43-.39.61-.61.53-.68.58-.68,1.19.12-.32.3-.69.57-.95.92-.24.33-.49.75-.5,1.13-.06,2.17-.04,4.34-.04,6.51,0,.18.12.35.19.53.19-.08.42-.13.57-.26.55-.47.73-1.08.66-1.81-.07-.63-.05-1.28-.03-1.92.01-.25.08-.56.24-.74.81-.93,1.66-1.83,2.54-2.78Z"/>
    <path class="cls-2" d="M16.49,16.69c-.39.43-.82.9-1.26,1.39-.52-.43-.98-.78-1.4-1.17-.95-.86-1.87-1.75-2.82-2.6-.34-.3-.46-.63-.45-1.08.03-.78-.03-1.57.02-2.36.03-.53-.1-.92-.51-1.23-.21-.16-.44-.34-.57-.56-.1-.17-.06-.42-.08-.63.25-.02.55-.13.75-.03.24.12.38.43.59.62.18.16.4.28.68.31-.41-1.09-1.6-1.5-2.2-2.51.2-.21.4-.41.63-.66.97,1.05,1.88,2.01,2.74,3,.15.17.16.51.16.77,0,.74-.02,1.49-.05,2.23-.04.75.5,1.14.97,1.55.04.03.41-.18.41-.28.01-2.34,0-4.67-.03-7.01,0-.22-.17-.46-.31-.64-.34-.41-.71-.8-1.09-1.22.16-.15.37-.34.64-.58.32.34.63.72.98,1.04.12.11.34.1.51.14-.07-.17-.09-.38-.21-.49-.64-.63-1.31-1.25-1.96-1.86.54-.95.63-.94,1.31-.18.65.72,1.38,1.37,2.01,2.1.24.28.42.72.41,1.09-.02,3.26-.1,6.53-.13,9.79,0,.33.15.66.24,1.05Z"/>
    <path class="cls-2" d="M19.52,21.79c0,.6-.05,1.21.02,1.8.04.36.2.76.43,1.04.29.36.68.67,1.08.91.21.12.56.09.82.03.54-.12,1.82.49,1.93,1.03.04.19-.1.47-.24.61-.09.09-.37.07-.53,0-.16-.07-.25-.3-.41-.36-.28-.12-.61-.27-.87-.21-.5.12-.87.05-1.21-.34-.33-.37-.66-.74-1.04-1.06-.15-.12-.42-.1-.63-.14.06.21.05.49.18.62.36.37.81.65,1.15,1.03.19.22.31.58.29.86-.04.58.06,1.05.56,1.4.26.19.52.43.14.8-.36.35-.56.16-.87-.1-.67-.56-1.04-1.18-.89-2.08.03-.18-.12-.41-.24-.58-.14-.2-.29-.43-.5-.55-1.11-.62-1.15-1.63-1.09-2.72.05-.82.04-1.66-.01-2.48-.03-.57.17-1,.58-1.35.22-.19.42-.4.65-.56.14-.1.36-.22.48-.17.12.05.22.29.23.46.02.7.01,1.41.01,2.11h-.02Z"/>
  </g>
</svg>