<?xml version="1.0" encoding="UTF-8"?>
<svg id="Layer_1" xmlns="http://www.w3.org/2000/svg" viewBox="0 0 32 32">
  <defs>
    <style>
      .cls-1 {
        fill: #fff;
      }

      .cls-2 {
        fill: #ef4136;
      }
    </style>
  </defs>
  <path class="cls-1" d="M15.62,28.83c-.42,0-.82-.19-1.13-.54l-.53-.6-.44.42-.79-.69c-.14-.12-.27-.23-.41-.35-.46-.4-.94-.81-1.4-1.25-.06-.06-.15-.16-.23-.31l-.12-.22-.22-.11c-.25-.13-.49-.32-.69-.58-.39-.5-.79-.98-1.21-1.49-.29-.35-.58-.7-.86-1.05-.18-.22-.26-.45-.31-.63l-.03-.12-.68-1.02c-.05-.08-.1-.15-.16-.22v-.02c-.19-.24-.39-.51-.54-.85-.39-.88-.77-1.79-1.1-2.69-.08-.22-.12-.49-.1-.76l.02-.28-.17-.23c-.09-.12-.16-.26-.2-.41-.18-.63-.32-1.27-.45-1.89-.04-.19-.08-.36-.12-.54l-.22-1.01.44-.15-.14-.66c-.1-.5.1-.99.19-1.17.27-.54.67-.71.96-.75l.64-.1v-.69s.69-.3.69-.3c.16-.07.31-.14.47-.21l.05-.02c.5-.22,1-.45,1.53-.65.16-.06.34-.09.53-.09.07,0,.13,0,.19,0l.27.02.23-.16c.2-.14.43-.25.66-.31,1.01-.28,2.08-.55,3.27-.83.14-.03.28-.05.43-.05.16,0,.3.02.42.03.05,0,.08,0,.1.01l.98.06.03.25,1.01-.25h.04c.11-.05.33-.13.59-.13.1,0,.21.01.31.03,1.36.31,2.56.6,3.67.88.21.05.4.13.56.25l.22.14.26-.02s.09,0,.13,0c.18,0,.35.03.51.1.56.22,1.1.48,1.63.72.19.09.37.17.56.26l2,.91-.15.09.46.67c.05.08.1.15.13.24.09.2.17.52.07.94l-.18.76.41.09-1.12,5.07-.1-.04-.28.73c-.25.65-.49,1.21-.72,1.72-.17.36-.36.71-.53,1.01v.02c-.08.12-.15.24-.22.37l-.36.67.2.23-.65.76c-.24.28-.48.56-.71.84l-.02.03c-.62.73-1.24,1.48-1.92,2.18-.14.14-.3.26-.47.35l-.24.12-.11.24c-.06.12-.13.23-.21.33-.35.41-.76.76-1.15,1.07-.24.19-.49.31-.67.39h-.03s-.09.05-.13.07l-1.41.74-.09.1c-.31.34-.71.53-1.12.53ZM14.91,11.53l-.61.25c-.47.19-.91.37-1.35.56-.38.16-.72.32-1.02.49-.08.05-.17.09-.26.14l-.55.26.13.6c.17.8.3,1.6.42,2.37v.05c.06.31.11.63.16.94l.08.49,3.7,3.04,3.75-3.02-.02-.39c0-.1,0-.2.02-.29.05-.26.09-.52.13-.77.14-.78.28-1.59.45-2.4,0-.01,0-.03.01-.04l.14-.63-.59-.25c-.83-.35-1.64-.72-2.53-1.12l-1.28-.58-.77.32ZM13.27,8.55l1.83.71.22.08,2.96-.68-2.06-.94-.56-.27-2.4,1.1Z"/>
  <g>
    <path class="cls-2" d="M23.18,9.28c.89.14,1.79.27,2.68.44.48.09.65.31.33.8-.63.97-1.21,1.98-1.81,2.96-.26.42-.55.51-.99.16-.36-.29-.82-.47-1.26-.67-.59-.27-.91-.65-.72-1.35.09-.34.07-.71.09-1.07.05-1.05.18-1.18,1.24-1.18.14,0,.29,0,.43,0,0-.03,0-.06.01-.09Z"/>
    <path class="cls-2" d="M9.85,11.5c.16.86-.29,1.3-1.02,1.58-.33.13-.7.25-.95.48-.59.55-.96.21-1.26-.27-.59-.95-1.14-1.92-1.67-2.9-.07-.13.09-.57.19-.59,1.16-.18,2.32-.3,3.48-.44.65-.08.99.2,1.04.86.03.43.12.85.18,1.27Z"/>
    <path class="cls-2" d="M18.09,24.01c-.21.44-.36.84-.59,1.19-.49.76-1.03,1.48-1.53,2.23-.24.35-.49.31-.68.02-.72-1.09-1.43-2.18-2.1-3.3-.07-.13.08-.51.23-.63.55-.41,1.13-.8,1.73-1.11.24-.13.65-.15.89-.03.61.32,1.17.73,1.73,1.14.15.11.21.33.32.5Z"/>
    <path class="cls-2" d="M19.74,18.87c0,.44.06.69,0,.89-.28.87-.59,1.74-.91,2.6-.25.65-.58.72-1.13.28-.44-.34-.88-.68-1.35-1.03,1.15-.92,2.19-1.76,3.41-2.74Z"/>
    <path class="cls-2" d="M11.61,18.92c1.04.86,2.08,1.71,3.26,2.67-.59.45-1.13.9-1.71,1.28-.1.07-.53-.13-.6-.29-.29-.67-.49-1.38-.73-2.07-.09-.27-.21-.52-.28-.79-.07-.23-.09-.47-.13-.7l.2-.09Z"/>
    <path class="cls-2" d="M10.54,17.51c-.18-.13-.39-.23-.55-.38-.64-.62-1.26-1.25-1.88-1.89-.52-.53-.48-.75.2-1.11.27-.14.55-.28.81-.44.6-.36.83-.32.97.34.24,1.11.39,2.23.58,3.35-.05.04-.1.08-.14.13Z"/>
    <path class="cls-2" d="M20.55,17.49c-.04-.15-.07-.22-.06-.29.19-1.05.35-2.1.58-3.14.14-.67.35-.73.95-.39.35.2.71.39,1.06.59.34.18.47.45.19.75-.76.79-1.55,1.56-2.34,2.34-.07.07-.21.09-.38.15Z"/>
    <path class="cls-2" d="M14.47,10.47c-.66.27-1.33.54-1.98.82-.39.17-.78.34-1.15.56-.54.32-.79.17-.83-.43,0-.07-.04-.14-.05-.21-.33-1.64-.22-1.75,1.37-1.45.72.14,1.46.21,2.18.33.15.02.29.11.44.16,0,.07.01.15.02.22Z"/>
    <path class="cls-2" d="M16.72,10.2c.59-.13,1.17-.28,1.76-.4.56-.11,1.12-.18,1.68-.29.44-.09.72.02.68.52-.05.52-.1,1.05-.22,1.56-.04.15-.36.38-.45.34-1.15-.48-2.28-1-3.42-1.52,0-.07,0-.15-.01-.22Z"/>
    <path class="cls-2" d="M7.52,19.66c-.2-.31-.45-.59-.6-.92-.39-.86-.75-1.74-1.07-2.62-.07-.19-.04-.51.08-.64.17-.19.47-.26.72-.38.1.21.25.41.3.63.29,1.17.56,2.35.82,3.53.02.1-.03.22-.04.33-.07.03-.13.05-.2.08Z"/>
    <path class="cls-2" d="M14.45,6.74c-.7.32-1.4.64-2.09.97-.45.21-.88.46-1.34.65-.22.09-.59.17-.71.06-.18-.16-.28-.51-.26-.76,0-.14.31-.32.51-.38,1.07-.29,2.15-.56,3.23-.82.2-.05.43.02.64.03.01.08.02.17.03.25Z"/>
    <path class="cls-2" d="M23.48,19.56c.29-1.46.57-2.93.9-4.59.37.22.75.36.98.62.11.12-.03.5-.12.74-.25.66-.52,1.32-.81,1.97-.21.46-.47.89-.72,1.33-.08-.02-.16-.05-.23-.07Z"/>
    <path class="cls-2" d="M16.76,6.51c.13-.03.27-.11.39-.09,1.22.28,2.44.57,3.65.87.46.12.46.48.25.78-.14.2-.52.45-.66.38-1.24-.55-2.45-1.17-3.67-1.77,0-.06.02-.12.03-.18Z"/>
    <path class="cls-2" d="M8.47,20.82c.31.21.63.41.93.64.66.5,1.33,1,1.96,1.54.23.2.75.39.33.83-.31.33-.69.63-1.12.08-.68-.86-1.39-1.7-2.08-2.55-.08-.1-.09-.25-.14-.38.04-.05.08-.1.13-.15Z"/>
    <path class="cls-2" d="M23.03,21.09c-.87,1.01-1.7,2.05-2.61,3-.4.42-.7-.16-1-.37-.02-.02.15-.43.31-.56.78-.66,1.59-1.3,2.4-1.93.21-.16.46-.26.7-.39.07.08.15.17.22.25Z"/>
    <path class="cls-2" d="M6.77,8.63c.66-.29,1.32-.61,2-.86.16-.06.56.05.56.1.01.26-.03.74-.12.75-.81.14-1.63.2-2.44.29,0-.09,0-.18,0-.27Z"/>
    <path class="cls-2" d="M24.48,8.66c-.37.22-2.32.2-2.53-.08-.13-.18-.15-.49-.11-.72.01-.08.37-.21.51-.16.72.29,1.42.63,2.13.95Z"/>
    <path class="cls-2" d="M26.32,12.18c-.18.82-.36,1.64-.58,2.61-.31-.13-.64-.18-.8-.36-.09-.1.04-.47.15-.67.3-.56.64-1.09.97-1.63l.27.06Z"/>
    <path class="cls-2" d="M17.55,26.25c.37-.57.7-1.16,1.13-1.68.11-.13.52-.02.79-.02-.04.21,0,.49-.12.63-.29.34-.64.64-.99.92-.18.15-.42.23-.63.34-.05-.06-.11-.13-.16-.19Z"/>
    <path class="cls-2" d="M13.48,26.56c-.59-.52-1.2-1.02-1.77-1.56-.07-.07.02-.46.12-.51.17-.08.52-.09.61.02.46.58.87,1.21,1.29,1.82-.08.08-.17.16-.25.24Z"/>
    <path class="cls-2" d="M5.1,12.08c.39.66.81,1.31,1.16,1.99.06.12-.09.48-.23.55-.16.08-.59,0-.61-.09-.22-.78-.38-1.58-.55-2.37.08-.03.16-.05.24-.08Z"/>
  </g>
</svg>