<?xml version="1.0" encoding="UTF-8"?>
<svg id="Layer_1" xmlns="http://www.w3.org/2000/svg" viewBox="0 0 32 32">
  <defs>
    <style>
      .cls-1 {
        fill: #fff;
      }

      .cls-2 {
        fill: #ef4136;
      }
    </style>
  </defs>
  <path class="cls-1" d="M11.48,26.32c-2.03,0-4.43,0-6.83-.01-.39,0-.73-.11-.98-.19h-.03c-.06-.03-.13-.05-.19-.07l-1.28-.32.5-1.23c.03-.07.05-.13.08-.2v-.02c.09-.22.18-.48.33-.74,1.89-3.27,4.13-7.14,6.44-11.11,1-1.71,2-3.41,3-5.12l.08-.13c.59-1,1.18-2,1.76-3.01.05-.09.1-.18.15-.27l.02-.04c.09-.17.18-.35.29-.53.56-.9,1.13-.9,1.32-.9h.14l.15.04c.48.12.96.47,1.2.9.87,1.51,1.73,3.03,2.59,4.55l.02.03c.77,1.36,1.55,2.73,2.33,4.09.95,1.67,2,3.47,3.29,5.67.55.94,1.11,1.88,1.67,2.82v.02c.63,1.04,1.25,2.08,1.86,3.12.18.3.24.59.29.82v.02s.02.09.04.13l.31,1.12-1.12.32s-.08.03-.13.04h-.02c-.2.08-.51.19-.87.19-2.47,0-4.93,0-7.4,0h-9ZM10.06,21.43l1.97-.68c.89-.31,1.7-.6,2.52-.87l.61-.2-.09-.64c-.02-.15-.03-.3-.03-.45,0-.99.02-1.99.02-2.98v-2.91s-4.99,8.74-4.99,8.74Z"/>
  <g>
    <path class="cls-2" d="M16.19,25.17c-3.85,0-7.69,0-11.54-.01-.31,0-.62-.15-.93-.22.11-.27.19-.56.34-.82,2.14-3.71,4.28-7.41,6.43-11.11,1.6-2.76,3.23-5.5,4.84-8.25.16-.27.28-.55.44-.82.09-.14.27-.38.35-.36.18.04.39.19.48.36,1.65,2.89,3.28,5.79,4.94,8.67,1.09,1.9,2.19,3.79,3.3,5.68,1.17,1.99,2.37,3.97,3.53,5.96.12.21.14.48.21.72-.24.07-.48.19-.72.19-3.89.01-7.79,0-11.68,0ZM27.01,23.79c-.1-.28-.13-.4-.19-.5-.44-.76-.88-1.52-1.33-2.29-1.75-3.03-3.5-6.06-5.26-9.07-1.24-2.12-2.49-4.22-3.76-6.31-.06-.1-.58-.1-.64,0-.76,1.23-1.47,2.49-2.19,3.74-1.53,2.66-3.05,5.32-4.6,7.96-1.18,2.01-2.4,4-3.58,6.01-.08.13-.05.38.03.52.04.08.3.11.44.07,1.38-.41,2.76-.82,4.12-1.28,1.84-.62,3.67-1.3,5.52-1.9.38-.12.87-.07,1.26.05,1.1.35,2.17.81,3.27,1.16,2.09.68,4.19,1.32,6.3,1.95.17.05.4-.08.62-.13Z"/>
    <path class="cls-2" d="M16.08,8.88c-.21.2-.32.27-.37.36-2.37,4.13-4.73,8.25-7.09,12.38-.33.57-.59.75-1.34.82.3-.6.54-1.12.83-1.61,2.49-4.25,4.99-8.49,7.49-12.74.07-.12.1-.28.19-.38.12-.15.27-.35.44-.38.09-.02.29.21.38.36,1.85,3.17,3.68,6.34,5.53,9.51.87,1.5,1.76,2.99,2.63,4.5.09.15.09.35.18.69-.75-.22-1.37-.39-1.98-.6-1.96-.67-3.91-1.38-5.87-2.02-.62-.2-.89-.5-.88-1.17.03-2.93.02-5.86.01-8.79,0-.26-.07-.51-.12-.92Z"/>
  </g>
</svg>