<?xml version="1.0" encoding="UTF-8"?>
<svg id="Layer_1" xmlns="http://www.w3.org/2000/svg" viewBox="0 0 32 32">
  <defs>
    <style>
      .cls-1 {
        fill: #fff;
      }

      .cls-2 {
        fill: #ef4136;
      }
    </style>
  </defs>
  <path class="cls-1" d="M15.54,30c-.64,0-1.48-.42-2.48-1.26-.98-.82-1.54-1.52-1.67-2.1-.05-.24-.18-.84-.18-.84-.24-1.15-.49-2.33-.79-3.46-.29-1.1-.84-2.06-1.71-2.91-.37-.37-.82-.94-.88-1.61l-.04-.43-.39-.19s-.48-.23-.48-.23c-.58-.28-1.24-.6-1.81-1.06-.5-.39-.75-.94-.96-1.37l-.02-.03c-.03-.07-.07-.14-.1-.21-.19-.36-.19-.86,0-1.29l.16-.37-.22-.34c-.37-.59-.68-1.25-.92-1.96-.24-.72-.36-1.44-.48-2.14-.02-.13-.05-.27-.07-.4-.23-1.28-.41-2.35-.54-3.45-.06-.45.06-.83.15-1.14v-.03c.03-.06.05-.12.06-.19l.26-1.21,1.21.35h.02s.07.02.12.03h.04c.36.07.9.16,1.3.62.55.64,1.01,1.32,1.36,2.02.45.92.76,1.75.95,2.53.3,1.29,1.12,2.19,2.83,3.1.43.23.91.41,1.37.57,1.31.46,2.37,1.18,3.16,2.13l.59.7.59-.7c.81-.96,1.9-1.68,3.24-2.15,1.93-.67,3.05-1.47,3.75-2.69.17-.3.29-.68.42-1.08.09-.29.2-.61.33-.93.32-.77.7-1.67,1.15-2.51.23-.44.63-.85,1.18-1.22.31-.21.73-.33,1.13-.33.26,0,.51.05.73.15.54.25.73.75.84,1.01l.03.08.23.44-.16.47c-.3.89-.4,1.83-.51,2.82-.16,1.45-.35,3.08-1.22,4.58-.08.15-.18.3-.3.48l-.15.23.07.74.02.11c.06.29.18.83-.15,1.34-.3.47-.72,1.06-1.3,1.52-.48.38-1.03.61-1.51.82l-.2.09s-.1.04-.17.07l-.42.19-.03.46c-.04.58-.4,1.1-.72,1.39-1.36,1.23-1.94,2.83-2.5,5.19-.14.61-.24,1.25-.33,1.95-.13.97-.59,1.68-1.39,2.16-.23.14-.47.33-.73.54-.18.15-.36.3-.57.44-.22.16-.44.27-.59.34l-.05.03-.25.13h-.3Z"/>
  <g>
    <path class="cls-2" d="M15.54,28.85c-.75,0-2.89-1.83-3.03-2.45-.31-1.45-.6-2.91-.98-4.35-.34-1.32-1.03-2.47-2.01-3.44-.26-.25-.56-.65-.54-.96.06-.98-.59-1.26-1.28-1.59-.64-.31-1.31-.61-1.86-1.05-.36-.29-.55-.81-.78-1.24-.05-.11.01-.37.11-.43.1-.07.32-.03.46.03.19.09.36.23.53.37,1.1.95,2.42,1.41,3.81,1.72,1.65.36,3.09,1.15,4.39,2.2.94.76,1.08.75,2.03,0,1.3-1.05,2.74-1.83,4.39-2.19,1.49-.33,2.89-.85,4.03-1.93.17-.16.5-.14.76-.21.02.25.15.56.05.73-.29.45-.63.91-1.04,1.23-.42.33-.96.54-1.46.76-.73.32-1.4.64-1.31,1.64.02.22-.16.52-.34.68-1.72,1.55-2.34,3.64-2.85,5.78-.16.68-.26,1.37-.35,2.06-.08.58-.32,1.02-.85,1.33-.49.29-.91.7-1.38,1.04-.19.14-.41.22-.51.28ZM14.21,25.65c.1-.01.19-.03.29-.04-.22-1.61-.35-3.23-.69-4.81-.19-.88-.69-1.71-1.1-2.53-.08-.15-.39-.19-.6-.28-.03.24-.14.5-.07.71.38,1.18.82,2.34,1.19,3.52.36,1.13.65,2.29.97,3.43ZM16.38,25.03l.28.06c.12-.25.28-.49.35-.75.25-1,.42-2.01.72-3,.27-.89.67-1.74.97-2.62.07-.22-.05-.51-.09-.77-.21.12-.46.19-.62.36-.16.16-.27.4-.35.62-.39,1.2-.84,2.39-1.12,3.62-.18.8-.1,1.65-.14,2.48Z"/>
    <path class="cls-2" d="M27.75,4c-.8,2.4-.35,4.98-1.63,7.19-1.03,1.77-2.5,2.84-4.52,3.22-2.01.38-3.94,1.02-5.62,2.24-.41.3-.72.34-1.15.02-1.79-1.34-3.89-1.91-6.03-2.36-2.42-.52-3.88-2.08-4.64-4.35-.25-.77-.37-1.58-.51-2.38-.2-1.13-.39-2.26-.53-3.39-.04-.31.12-.65.19-.98.33.09.77.09.95.3.47.54.88,1.14,1.2,1.78.36.73.67,1.5.86,2.28.45,1.92,1.8,3,3.41,3.85.48.26,1.01.46,1.52.64,1.67.59,2.89,1.65,3.58,3.31.1.25.39.42.6.62.17-.21.41-.39.51-.63.71-1.68,1.96-2.74,3.66-3.33,1.78-.62,3.4-1.51,4.37-3.2.37-.65.52-1.43.82-2.14.34-.82.69-1.63,1.1-2.41.17-.32.49-.59.8-.8.19-.13.53-.18.72-.09.18.08.24.4.34.59Z"/>
  </g>
</svg>