<?xml version="1.0" encoding="UTF-8"?>
<svg id="Layer_1" xmlns="http://www.w3.org/2000/svg" viewBox="0 0 32 32">
  <defs>
    <style>
      .cls-1 {
        fill: #fff;
      }

      .cls-2 {
        fill: #ef4136;
      }
    </style>
  </defs>
  <path class="cls-1" d="M15.35,29.98l-.05-.06c-.13-.15-.35-.41-.41-.79-.09-.63-.17-1.28-.25-1.9-.09-.71-.18-1.44-.28-2.15-.06-.44-.15-.88-.24-1.35-.08-.42-.17-.84-.23-1.26-.09-.58-.17-1.17-.24-1.74v-.02c-.05-.39-.1-.79-.16-1.18v-.02s0-.02,0-.02c0-.02-.03-.12-.05-.19-.03-.12-.07-.24-.1-.39-.12-.61-.24-1.27-.34-1.92-.02-.12-.09-.72.29-1.17l.35-.42-.37-.4c-.43-.47-.56-.95-.39-1.43l.3-.84h-1.32c-.32-.04-1.34-.26-1.35-1.67,0-.26,0-.85.44-1.29.27-.27.63-.41,1.06-.41h.05c.38,0,.77.02,1.15.03l.68.02-.04-.68c0-.08,0-.15,0-.21v-.06s.22-1.02.22-1.02c.18-.82.36-1.67.53-2.53.05-.23.08-.47.12-.72v-.02c.05-.3.09-.62.16-.94.07-.34.27-.58.4-.74.02-.03.06-.08.06-.08l.75-1.11.79,1.08.05.06c.15.17.37.41.45.77.22,1,.42,2.01.62,2.99l.02.08c.13.65.26,1.29.4,1.94.03.14.04.29.03.45l-.04.66s1.16,0,1.27,0c.13,0,.27,0,.4,0h.06c.48,0,.87.15,1.16.45.21.22.46.62.45,1.3-.03,1.22-.8,1.65-1.52,1.65-.06,0-.13,0-.19,0h-.03s-.06,0-.06,0l-.9.03.33.83s.01.03.02.05c.09.24.13.62-.19,1.07-.04.05-.12.16-.23.29l-.36.41.36.42c.39.45.33,1.04.3,1.21-.1.59-.21,1.18-.32,1.77v.05c-.17.87-.34,1.78-.49,2.66-.14.84-.25,1.7-.36,2.53-.06.47-.12.94-.19,1.41l-.02.14c-.16,1.17-.33,2.38-.53,3.58-.07.42-.33.67-.49.82l-.05.05-.79.95-.71-1.02Z"/>
  <g>
    <path class="cls-2" d="M15.41,15.25c.2.85.4,1.7.6,2.56.09,0,.17,0,.26,0,.21-.86.42-1.72.63-2.59.07-.02.14-.03.21-.05.4.42.8.82,1.18,1.26.08.1.11.3.08.43-.26,1.5-.57,2.99-.81,4.5-.21,1.32-.36,2.64-.55,3.97-.17,1.23-.34,2.47-.54,3.7-.02.15-.22.28-.34.42-.1-.15-.28-.29-.3-.44-.19-1.35-.33-2.71-.53-4.06-.13-.88-.34-1.74-.48-2.62-.15-.97-.26-1.95-.4-2.92-.03-.23-.12-.44-.17-.67-.12-.63-.24-1.25-.33-1.88-.02-.14,0-.34.09-.43.37-.42.78-.81,1.17-1.21.08.01.16.02.23.04Z"/>
    <path class="cls-2" d="M14.8,8.59c.23-1.08.5-2.29.74-3.5.11-.55.16-1.12.28-1.67.04-.18.21-.33.32-.49.12.16.3.3.34.48.36,1.66.69,3.33,1.04,5,.13.64-.58,1.83-1.22,1.99-.09.02-.2.03-.29.01-.46-.09-1.26-1.21-1.21-1.82Z"/>
    <path class="cls-2" d="M19.02,10.28c.37,0,.74,0,1.12,0,.55-.01.72.33.71.79,0,.43-.13.77-.69.72-.33-.03-.68.06-1,0-1.09-.21-1.86.24-2.55,1.03-.54.62-1.16,1.16-1.72,1.77-.31.34-.55.22-.77-.05-.21-.25-.59-.48-.19-.88.96-.95,1.89-1.92,2.88-2.84.25-.23.64-.36.99-.42.4-.07.82-.02,1.23-.02,0-.03,0-.06,0-.1Z"/>
    <path class="cls-2" d="M13.36,11.78c-.43,0-.86-.01-1.3,0-.52.02-.61-.32-.62-.73,0-.39.06-.77.58-.76.9.02,1.8.05,2.7.08.08,0,.17.01.22.06.22.2.43.41.64.62-.28.24-.52.61-.84.7-.44.12-.93.03-1.4.03,0,0,0,0,0,0Z"/>
    <path class="cls-2" d="M17.57,12.8c.4.44.82.75.97,1.16.06.16-.65.83-.75.78-.41-.22-.81-.58-1.03-.99-.07-.12.47-.57.81-.96Z"/>
  </g>
</svg>