<?xml version="1.0" encoding="UTF-8"?>
<svg id="Layer_1" xmlns="http://www.w3.org/2000/svg" viewBox="0 0 32 32">
  <defs>
    <style>
      .cls-1 {
        fill: #fff;
      }

      .cls-2 {
        fill: #ef4136;
      }
    </style>
  </defs>
  <path class="cls-1" d="M15.65,26.31l.46-1.17c.55-1.39.23-2.5-1.14-3.95-1.72-1.83-3.72-3.95-5.74-6.05-.6-.62-1.38-.98-2.38-1.08-.21-.02-.38-.07-.57-.12h-.02c-.08-.03-.17-.05-.29-.08l-2.08-.52,2.13-1.94c.34-.31.64-.59.94-.86.98-.88,3.15-2.83,3.15-2.83,1.87-1.69,3.74-3.37,5.61-5.06.41-.37.87-.78,1.51-.78.79,0,1.21.55,1.64,1.22.68,1.06,1.4,2.12,2.1,3.14l.03.04c.38.56.75,1.11,1.13,1.67.13.2.22.39.3.55v.03s.06.09.08.14l.36.7-.67.78-1.13,1.31.33.49c.33.49.68,1.01,1.05,1.57.17.25.23.5.27.66l.02.06.21.64-1.01,1.11.34.5c.47.69.97,1.43,1.54,2.28.24.37.22.74.21.91,0,.06,0,.1,0,.16v1.99l-.99-.56-.95,1.19c.83.92,1.66,1.84,2.47,2.74l1.18,1.32c.21.23.3.47.36.63l.02.06.25.53-.84,1.54-9.87-2.94Z"/>
  <path class="cls-2" d="M6.26,12.73c.58-.53,1.03-.94,1.48-1.35,2.92-2.63,5.84-5.26,8.76-7.9.77-.7.85-.66,1.42.21,1.06,1.64,2.17,3.25,3.26,4.87.12.19.21.4.31.6-.05.06-.11.12-.16.19-.45-.29-.91-.57-1.36-.87-.47-.32-.94-.65-1.41-.98-1-.7-2.15-.4-2.91.33-1.25,1.22-2.57,2.38-3.85,3.56-.34.31-.38.62-.06.99.54.61,1.06,1.23,1.59,1.85.35.42.65.25.96-.06,1.22-1.22,2.45-2.44,3.68-3.66.56-.55.72-.55,1.16.1.8,1.16,1.58,2.32,2.36,3.49.08.12.1.29.15.44-.05.05-.09.1-.14.15-.34-.22-.68-.44-1.02-.65-.4-.25-.77-.63-1.21-.73-.44-.09-1.04-.05-1.39.19-.92.64-1.75,1.42-2.58,2.17-.12.11-.16.47-.07.59.51.67,1.03,1.32,1.63,1.91.13.13.65.07.83-.08.74-.65,1.43-1.36,2.1-2.07.32-.34.57-.33.81.03.76,1.1,1.5,2.2,2.24,3.31.04.06,0,.18,0,.43-.35-.2-.61-.33-.85-.49-.4-.26-.79-.53-1.18-.8-.44-.3-.83-.19-1.24.1-1.47,1.03-1.47,1.22-.23,2.56,1.86,2,3.67,4.04,5.5,6.07.1.11.14.27.2.41-.04.07-.07.14-.11.2-2.58-.77-5.15-1.53-7.77-2.31.85-2.17-.03-3.74-1.37-5.16-1.91-2.03-3.82-4.06-5.74-6.06-.84-.87-1.9-1.31-3.1-1.43-.17-.02-.34-.08-.71-.18Z"/>
</svg>