<?xml version="1.0" encoding="UTF-8"?>
<svg id="Layer_1" xmlns="http://www.w3.org/2000/svg" viewBox="0 0 32 32">
  <defs>
    <style>
      .cls-1 {
        fill: #fff;
      }

      .cls-2 {
        fill: #ef4136;
      }
    </style>
  </defs>
  <path class="cls-1" d="M15.57,24.4c-.68,0-1.09-.4-1.7-1.05l-.03-.03c-.08-.09-.17-.18-.27-.29-.29-.3-.5-.39-.92-.39h-.04c-1.73.03-3.47.03-4.95.03h-1.82c-.46,0-.93,0-1.39,0-.07,0-.14,0-.2,0h-.03c-.12,0-.23.01-.35.01s-.23,0-.33-.02c-.08,0-.17-.01-.26-.02h-.05c-1.01-.06-1.68-.25-1.9-1.01-.21-.74-.13-1.52-.02-2.19.06-.36.25-.64.57-.87l.45-.31-.16-.57s-.01-.04-.02-.06c-.13-.64-.05-1.26.02-1.81v-.1c.1-.69.73-1.15,1.62-1.16l2.44-.03-2.02-1.37c-.73-.49-1.05-1.05-.96-1.65.12-.78.58-1.45.92-1.89.17-.23.5-.5,1.08-.5.38,0,.84.12,1.17.3.49.27.96.54,1.36.77l2.53,1.46-1.48-2.52c-.24-.41-.49-.83-.73-1.25-.22-.39-.56-.97-.37-1.65.19-.69.81-1.03,1.35-1.33.4-.22.77-.33,1.13-.33.49,0,1.19.2,1.73,1.17,1.01,1.82,2.03,3.67,3.04,5.51l.68,1.24.67-1.25c.83-1.55,1.86-3.48,2.87-5.32.17-.31.79-1.3,1.75-1.3.06,0,.12,0,.17.01.79.1,1.46.54,1.89.89.77.63.44,1.84.16,2.33-.23.4-.46.79-.7,1.19l-1.45,2.46,2.49-1.39c.42-.24.85-.47,1.27-.71.4-.22.76-.33,1.11-.33.2,0,1.22.06,1.6,1.25l.04.13.08.11c.35.46.48.98.37,1.48-.1.44-.37.82-.79,1.09l-1.95,1.28,2.33.14c.94.06,1.55.7,1.6,1.68v.05c.03.54.05,1.04-.07,1.46l-.15.5.41.32c.07.05.12.1.16.14.54.55.53,1.28.52,1.56v.08c-.01.7-.02,1.16-.26,1.58-.19.35-.57.81-1.67.81-.13,0-.27,0-.44,0h-.22c-1.86-.05-3.76-.07-5.81-.07-1.06,0-2.18,0-3.32.02h-.3s-.22.21-.22.21c-.05.05-.11.1-.15.15l-.04.04c-.14.14-.27.26-.38.37-.59.59-.99.95-1.64.95Z"/>
  <g>
    <path class="cls-2" d="M15.56,17.75c-3.8,0-7.6,0-11.4-.01-.31,0-.85-.16-.88-.32-.1-.49-.02-1.03.04-1.54,0-.07.33-.15.5-.14,2.11.03,4.23.09,6.34.11.26,0,.52-.13.78-.19-.19-.21-.35-.5-.58-.62-1.71-.88-3.44-1.72-5.15-2.6-.33-.17-.85-.53-.82-.73.07-.48.38-.96.69-1.36.08-.1.55,0,.78.12,1.08.59,2.14,1.24,3.22,1.84,1.02.57,2.04,1.12,3.07,1.66.17.09.39.08.58.12-.01-.22.05-.48-.05-.65-.66-1.16-1.36-2.3-2.04-3.45-.52-.88-1.04-1.76-1.56-2.65-.44-.77-.4-.88.53-1.39.6-.33.95-.23,1.29.39,1.39,2.52,2.78,5.03,4.16,7.55.07.12.04.29.11.41.18.35.63.37.81.04,1.4-2.61,2.79-5.23,4.21-7.82.16-.3.54-.73.76-.7.46.06.93.34,1.3.64.12.1.03.61-.11.85-1.19,2.04-2.41,4.05-3.61,6.08-.11.18-.09.43-.13.65.21-.02.46.02.63-.08,2.1-1.16,4.18-2.35,6.28-3.51.48-.26.93-.32,1.08.4.03.15.15.3.25.43.35.44.19.79-.24,1-1.76.89-3.54,1.75-5.31,2.62-.02.01-.05,0-.07.02-.28.23-.56.46-.83.69.35.08.69.22,1.04.22,2.04,0,4.09-.05,6.13-.09.42,0,.59.13.61.58.07,1.46.08,1.46-1.4,1.45-3.68,0-7.36,0-11.03,0Z"/>
    <path class="cls-2" d="M8.47,19.45c1.73,0,3.46.03,5.19-.02.65-.02,1.03.33,1.41.72.39.39.74.41,1.08-.02.45-.57,1.02-.68,1.72-.68,3.36-.01,6.72-.06,10.09-.12.7-.01.92.24.91.92-.02,1.45,0,1.36-1.41,1.33-3.19-.08-6.39-.08-9.58-.04-.37,0-.77.41-1.09.71-1.37,1.32-1.08,1.36-2.38-.01-.52-.55-1.06-.76-1.82-.75-2.71.05-5.43.03-8.14.03-.26,0-.53.03-.79,0-.42-.04-1.16-.03-1.21-.2-.15-.52-.08-1.12,0-1.68.02-.14.45-.3.69-.3,1.78-.03,3.55-.01,5.33-.01,0,.04,0,.07,0,.11Z"/>
  </g>
</svg>