<?xml version="1.0" encoding="UTF-8"?>
<svg id="Layer_1" xmlns="http://www.w3.org/2000/svg" viewBox="0 0 32 32">
  <defs>
    <style>
      .cls-1 {
        fill: #fff;
      }

      .cls-2 {
        fill: #ef4136;
      }
    </style>
  </defs>
  <path class="cls-1" d="M16.16,29.42c-.81,0-1.18-.37-1.34-.68-.44-.83-.77-1.66-1.01-2.56l-.23-.86-.15-.15c-.48-.47-1-.99-1.57-1.58-.19-.2-.34-.41-.45-.62l-.16-.32-.35-.08c-.78-.18-1.54-.46-2.31-.85l-.69-.35-.21.43-.82-.11-.52-.07c-.68-.09-1.37-.18-2.05-.3-.28-.05-.78-.24-1-.97-.25-.79.07-1.25.28-1.46.48-.46.97-.9,1.48-1.35l.45-.4,1.07-.96.07-.16c.27-.62.52-1.16.76-1.65.14-.27.29-.51.46-.7l.22-.25-.03-.34c-.06-.58-.01-1.22.14-1.96l.03-.14-.42-5.35,1.11-1.31,3.59,2.04.11.76.64.13c.6.12,1.39.3,2.17.55.12.04.24.09.37.15l.33.16.33-.15c.21-.1.45-.17.71-.22.35-.07.7-.14,1.04-.22l1.41-.29-.45-1.14,1.37-.26s.07-.01.11-.02l.15-.02.13-.08c.24-.15.49-.3.74-.46.19-.12.36-.23.54-.34.34-.21.68-.32,1-.32.37,0,.72.14.97.4.28.28.41.66.4,1.1-.02.69-.1,1.37-.17,2.03-.03.26-.06.52-.09.78l-.07.74-.47.16.18.69c.14.53.27,1.09.4,1.66.09.4.11.76.07,1.07l-.05.37.26.27c.35.37.55.8.66,1.03.18.4.37.82.54,1.26l.26.64.45-.13,3.87,3.86-1.69.63c-.91.34-1.79.49-2.84.49-.27,0-.55,0-.86-.03l-.92-.06-.2.11c-.84.46-1.6.74-2.39.88l-.4.07-.17.36c-.19.39-.5.74-.75.99-.3.31-.65.64-1.05,1l-.59.54.32.33-.32.72c-.07.16-.15.33-.22.5v.03c-.26.56-.51,1.14-.81,1.71-.17.31-.54.69-1.36.69Z"/>
  <g>
    <path class="cls-2" d="M11.43,21.5c-1.78-.34-3.11-1.22-4.42-2.11-.16-.11-.33-.45-.27-.6.52-1.32,1.04-2.64,1.67-3.91.4-.79.62-.78,1.43-.34.08.05.16.1.25.14,1.52.59,1.58.7.91,2.22-.2.45-.11.73.24.99.38.29.75.59,1.16.83.36.22.45.42.24.81-.26.48-.39,1.02-.65,1.49-.13.23-.42.37-.55.48Z"/>
    <path class="cls-2" d="M16.15,25.86c-.39-.27-.82-.49-1.17-.8-.79-.73-1.55-1.49-2.3-2.26-.46-.48-.48-.96.11-1.38.12-.08.22-.18.33-.28,1.14-1.03,1.17-1.07,2.37-.1.53.43.9.35,1.39,0,1.29-.95,1.28-.91,2.48.21.76.71.87,1.01,0,1.89-.88.9-1.87,1.7-2.81,2.54-.1.09-.24.12-.41.2Z"/>
    <path class="cls-2" d="M13.81,11.83c-1.06-.39-1.31.46-1.66,1.25-.4.92-.76,1.03-1.73.67-.07-.02-.13-.06-.19-.09-.36-.16-.98-.27-1.02-.48-.11-.59-.03-1.23.09-1.83.18-.85.46-1.68.71-2.52.15-.5.4-.87,1.01-.78.66.1,1.32.18,1.97.31.69.14,1.38.3,2.05.52.73.24.9.63.67,1.34-.13.41-.23.83-.41,1.21-.08.17-.33.33-.52.38-.27.06-.57.02-.97.02Z"/>
    <path class="cls-2" d="M19.53,19.04c.5-.37,1.01-.72,1.5-1.1.37-.28.6-.57.31-1.08-.19-.34-.26-.76-.36-1.15-.16-.64.47-.62.76-.86.15-.12.4-.13.6-.21,1.06-.44,1.41-.35,1.9.7.49,1.05.9,2.13,1.27,3.23.08.23-.08.71-.29.84-1.24.81-2.43,1.72-3.97,1.96-.57.09-.8-.11-.98-.55-.23-.57-.47-1.13-.74-1.79Z"/>
    <path class="cls-2" d="M16.55,9.76c-.1-.67.33-.81.81-.91,1.32-.27,2.63-.58,3.97-.76.28-.04.8.32.89.6.4,1.21.72,2.45.99,3.7.19.87.08.96-.78,1.16-.46.11-.92.22-1.37.35-.41.12-.64-.05-.75-.43-.01-.05-.03-.09-.05-.14-.74-1.67-.3-1.56-2.24-1.49-.68.02-1.03-.15-1.11-.86-.05-.41-.23-.81-.36-1.22Z"/>
    <path class="cls-2" d="M15.51,15.73c-.44-.25-.88-.51-1.42-.82.21-.23.36-.44.55-.59.55-.43.99-.26,1.12.43.07.36.12.72.46.67.35-.53.54-1.09.93-1.3.2-.11.74.41,1.27.74-.63.36-1.08.62-1.53.88,0,.07.02.15.03.22.33.06.66.14,1,.17.47.04.68.2.44.69-.12.25-.2.51-.33.86-.46-.32-.85-.6-1.24-.88-.06.04-.12.07-.18.11.06.25.15.49.18.74.02.2,0,.58-.06.59-.33.06-.69.07-1.03.02-.06,0-.11-.38-.09-.58.02-.25.11-.49.17-.73-.05-.05-.11-.09-.16-.14-.22.16-.43.35-.68.47-.19.1-.6.19-.62.15-.14-.31-.25-.65-.27-.99,0-.09.28-.25.46-.3.31-.09.63-.11.95-.17.02-.08.03-.16.05-.24Z"/>
    <path class="cls-2" d="M28.32,20.04c-1.06.39-1.99.47-3.23.39.89-.71,1.43-1.39.85-2.42.09-.03.18-.05.27-.08.66.66,1.32,1.31,2.11,2.11Z"/>
    <path class="cls-2" d="M22.98,8.84c-.46-.81-.72-1.87-2.08-1.48-.05-.14-.11-.28-.16-.41.17-.03.36-.02.5-.1.53-.31,1.05-.64,1.57-.97.27-.17.63-.29.62.18-.02.91-.16,1.81-.25,2.72-.06.02-.12.04-.18.06Z"/>
    <path class="cls-2" d="M6.25,17.99c-.04.46-.22.97-.07,1.35.14.35.65.56,1,.83-.06.12-.12.24-.18.36-.84-.11-1.69-.22-2.53-.36-.07-.01-.18-.4-.12-.46.59-.57,1.22-1.11,1.9-1.72Z"/>
    <path class="cls-2" d="M17.5,26.03c-.32.72-.63,1.46-1,2.16-.05.1-.61.1-.66,0-.37-.71-.68-1.45-.91-2.31.41.22.81.6,1.22.6.4,0,.8-.39,1.19-.61.05.05.1.1.15.16Z"/>
    <path class="cls-2" d="M9.16,5.79c.76.43,1.51.86,2.27,1.29.01.1.03.19.04.29-1.36-.41-1.71.6-2.28,1.37l-.21-2.73c.06-.07.12-.14.18-.21Z"/>
  </g>
</svg>