<?xml version="1.0" encoding="UTF-8"?>
<svg id="Layer_1" xmlns="http://www.w3.org/2000/svg" viewBox="0 0 32 32">
  <defs>
    <style>
      .cls-1 {
        fill: #fff;
      }

      .cls-2 {
        fill: #ef4136;
      }
    </style>
  </defs>
  <path class="cls-1" d="M15.98,28.99c-2.43,0-4.72-.86-6.63-2.47-1.73-1.47-2.92-3.32-3.43-5.35-.31-1.24-.37-2.67-.19-4.24.36-3.03,1.9-5.54,3.5-7.8.27-.39.61-.67.99-.85l.4-.18.04-.44c.03-.34.19-.67.46-.95.64-.66,1.29-1.33,1.92-1.97l.11-.11c.46-.47.93-.94,1.39-1.42.55-.56,1.09-.68,1.46-.68.52,0,1.02.23,1.51.69,3.09,2.91,5.18,5.41,6.75,8.1.99,1.7,2.15,4,2.23,6.64.11,3.41-1.27,6.42-3.97,8.72-1.67,1.41-3.77,2.21-6.09,2.31-.15,0-.3,0-.45,0ZM15.79,15.66c-.17.1-.34.2-.51.3-.35.2-.67.39-.97.59-.87.62-1.17,1.83-.75,3.09.28.84,1.33,1.58,2.3,1.62.04,0,.08,0,.12,0,1.52,0,2.62-1,2.74-2.48.06-.79-.19-1.97-1.77-3.06-.06-.04-.13-.09-.19-.13l-.4-.27-.56.34Z"/>
  <g>
    <path class="cls-2" d="M14.85,10.23c-.17.37-.3.66-.49,1.06-.33.03-.8.1-1.27.12-.37.02-.75-.05-.7.54,0,.08-.34.29-.5.27-1.35-.15-2.07.74-2.71,1.66-1.44,2.1-1.72,4.48-1.1,6.86.71,2.74,2.48,4.73,5.2,5.66,3.14,1.07,6.55.34,8.79-2.19,2.16-2.45,2.75-5.34,1.67-8.47-.86-2.47-2.7-4.1-4.84-5.42-1.52-.94-3.15-1.6-4.96-1.8-.59-.07-1.16-.24-1.73-.39-.33-.09-.55-.3-.24-.62,1.13-1.17,2.27-2.32,3.41-3.49.48-.49.88-.4,1.35.04,2.5,2.35,4.81,4.87,6.54,7.85,1.1,1.88,2,3.88,2.07,6.09.1,3.16-1.16,5.76-3.56,7.8-1.55,1.32-3.42,1.95-5.4,2.03-2.34.1-4.47-.65-6.29-2.19-1.5-1.27-2.58-2.88-3.05-4.75-.31-1.22-.31-2.57-.16-3.83.33-2.74,1.73-5.06,3.29-7.27.32-.46.77-.66,1.37-.5.78.21,1.58.33,2.35.53.36.09.69.29.95.41Z"/>
    <path class="cls-2" d="M11.5,13.85c-.12.25-.21.53-.37.75-1.54,2.11-1.87,4.35-.89,6.82.98,2.47,3.77,4.28,6.75,3.78,2.02-.34,3.55-1.47,4.58-3.35.76-1.38.83-2.78.72-4.24-.03-.39-.28-.77-.43-1.15-.08.03-.16.06-.24.08,0,.44-.04.88,0,1.32.32,3.42-.94,4.93-3.56,6.22-.87.43-2.09.4-3.1.24-2.38-.4-4-1.87-4.54-4.23-.44-1.95-.33-3.92,1.18-5.49.32-.33.81-.48,1.22-.72.06.07.12.14.18.21-.19.28-.4.54-.57.83-.38.65-.78,1.29-1.11,1.97-.22.46-.5.99-.48,1.48.14,2.94,2.03,5.47,5.49,5.3,1.83-.09,3.23-.97,4.01-2.51.63-1.25,1.05-2.56.39-4.16-.81-1.94-2-3.33-3.74-4.37-.05-.03-.07-.11-.21-.34,1.89.55,3.07,1.84,4.3,3.06.08-.07.17-.14.25-.22-.51-.78-1.02-1.55-1.54-2.33,1.84.89,3.63,3.76,3.15,7.19-.38,2.73-3.36,5.66-5.95,5.87-4.47.37-6.95-2.38-7.84-5.24-.9-2.89.56-6.02,2.1-6.87.07.03.14.07.21.1Z"/>
    <path class="cls-2" d="M13.27,12.16c.78.24,1.59.4,2.32.73,1.59.71,3.03,1.66,4.06,3.11,1.63,2.31,1.09,4.68-1.14,6.24-2.67,1.86-5.76.24-6.79-2.08-.62-1.4-.49-2.85.55-4.04.5-.58,1.17-1.03,1.82-1.45.29-.18.72-.14,1.09-.2.01.07.02.13.03.2-.52.31-1.06.59-1.55.94-1.3.92-1.75,2.66-1.18,4.4.44,1.32,1.93,2.36,3.36,2.41,2.27.07,3.88-1.5,4.05-3.54.14-1.75-.88-3.14-2.27-4.1-1.21-.83-2.57-1.44-3.86-2.14-.18-.1-.37-.17-.55-.26.03-.07.05-.14.08-.2Z"/>
  </g>
</svg>