<?xml version="1.0" encoding="UTF-8"?>
<svg id="Layer_1" xmlns="http://www.w3.org/2000/svg" viewBox="0 0 32 32">
  <defs>
    <style>
      .cls-1 {
        fill: #fff;
      }

      .cls-2 {
        fill: #ef4136;
      }
    </style>
  </defs>
  <path class="cls-1" d="M16.01,29.76c-.23-.1-.45-.2-.67-.3l-.05-.02c-.61-.27-1.24-.54-1.85-.85-.49-.25-.92-.74-1.11-1.26-.17-.48-.28-.97-.38-1.41-.03-.12-.05-.24-.08-.35-.21-.92.24-1.74,1.17-2.1.77-.3,1.02-.74.98-1.76-.07-1.69-.19-3.08-.91-4.35-.25-.43-.55-.77-.91-1.02l-.8-.55-.35.91c-.15.39-.42.7-.73.86-.39.2-.84.34-1.33.4-.13.02-.25.03-.36.03-.5,0-1.39-.19-1.72-1.47-.49-1.87-1.06-3.77-1.61-5.61l-.06-.19c-.13-.42-.25-.83-.38-1.25-.44-1.48-.92-3.05-1.43-4.62-.23-.7-.04-1.19.17-1.48.28-.4.76-.65,1.31-.67.14,0,.28,0,.42,0,.43,0,1.57,0,2.37,1,.47.59,1.07.92,1.88,1.04h.02s.02,0,.02,0c0,0,.04,0,.12,0,.07,0,.15,0,.23,0h.1s.1-.04.1-.04c.11-.04.28-.09.48-.1.27-.02.54-.04.81-.06h.05c.91-.07,1.84-.14,2.78-.15l1.66-.02-.14-.17,2.68.19c.41.03.81.05,1.19.07h.03c.84.05,1.64.1,2.44.2.19.02.37.04.54.04.91,0,1.37-.38,1.63-.67.83-.91,1.73-1.33,2.82-1.33h.02c.69,0,1.19.21,1.51.64.21.28.41.78.19,1.51-.15.5-.31,1.01-.46,1.51-.23.76-.48,1.54-.7,2.31-.31,1.09-.62,2.19-.92,3.26-.16.6-.33,1.19-.5,1.79l-.12.43c-.25.89-.5,1.8-.79,2.71-.19.62-.85,1.1-1.51,1.1h-.17c-.57-.08-1.11-.21-1.61-.38-.35-.13-.62-.38-.78-.77l-1.1-2.61-.37,2.8c-.02.15-.05.29-.1.42-.56,1.45-.78,3.06-.7,4.93.03.58.31.97.85,1.18.97.38,1.38,1.13,1.25,2.29v.06c-.04.32-.15.58-.23.78v.02s-.04.07-.05.11v.03s-.02.03-.02.03c-.26,1-.9,1.65-1.97,1.97-.42.13-.85.36-1.27.59-.19.1-.39.21-.58.31l-.49.24-.5-.22Z"/>
  <g>
    <path class="cls-2" d="M16.48,28.71c-.88-.39-1.71-.74-2.52-1.15-.23-.12-.46-.38-.55-.63-.19-.53-.29-1.08-.42-1.63-.09-.4.12-.63.46-.76,1.33-.51,1.77-1.48,1.71-2.88-.07-1.7-.19-3.36-1.07-4.87-.65-1.12-1.61-1.8-2.86-2.05-.9-.17-1.42.43-1.24,1.3.03.15-.09.43-.22.5-.29.15-.63.24-.96.28-.43.06-.67-.02-.82-.59-.62-2.38-1.35-4.73-2.06-7.09-.46-1.56-.93-3.11-1.44-4.65-.15-.47.11-.62.42-.63.66-.02,1.36-.04,1.84.56.67.84,1.56,1.3,2.61,1.46.28.04.57.02.85,0,.16-.01.32-.12.48-.13,1.19-.08,2.39-.18,3.58-.21,3.02-.06,4.73,2.15,4.78,4.89,0,.39-.15.79-.25,1.18-.15.57-.61.58-1.02.43-.34-.13-.56-.34-.34-.88.46-1.12-.07-2.7-.93-3.29-1.48-1.01-2.92-.94-3.95-.03-.42.37-.73,1.03-.8,1.6-.3,2.36.7,4.23,2.47,5.7.95.79,2.12,1.12,3.36,1.13.33,0,.66,0,1.08,0-.02.3.02.55-.06.75-.67,1.74-.86,3.55-.77,5.39.05,1.06.64,1.83,1.58,2.2.65.26.57.69.52,1.15-.03.28-.2.53-.27.81-.16.64-.52.96-1.18,1.16-.75.23-1.44.68-2.03.97Z"/>
    <path class="cls-2" d="M18.39,5.54c1.35.09,2.48.12,3.58.27,1.23.16,2.32-.07,3.17-.99.55-.6,1.15-.96,1.98-.96.49,0,.77.12.6.67-.38,1.28-.79,2.55-1.17,3.84-.49,1.68-.94,3.37-1.41,5.06-.29,1.04-.58,2.08-.9,3.11-.04.13-.29.31-.43.29-.46-.06-.93-.16-1.37-.32-.11-.04-.2-.37-.15-.53.2-.71-.11-1.27-.88-1.28-.93,0-1.86.08-2.78.19-1.18.15-3.29-.57-4.1-1.76-.79-1.15-1.02-2.41-.84-3.74.04-.33.32-.67.58-.9.11-.1.52-.01.68.12.16.13.3.48.23.64-.7,1.7.52,3.35,1.82,3.86,1,.39,2.08.4,3-.3,1.04-.79,1.65-1.85,1.41-3.17-.13-.7-.58-1.3-1.14-1.83-.66-.63-1.18-1.4-1.89-2.26Z"/>
  </g>
</svg>