<?xml version="1.0" encoding="UTF-8"?>
<svg id="Layer_1" xmlns="http://www.w3.org/2000/svg" viewBox="0 0 32 32">
  <defs>
    <style>
      .cls-1 {
        fill: #fff;
      }

      .cls-2 {
        fill: #ef4136;
      }
    </style>
  </defs>
  <path class="cls-1" d="M13.15,29.55c-.03-.07-.07-.14-.1-.22l-.02-.04c-.14-.27-.31-.6-.38-1.01-.14-.79-.27-1.58-.37-2.17l-.28-1.71-1.28,1.6c-.4.5-.79.91-1.46.91s-1.04-.41-1.44-.8c-.06-.06-.12-.12-.18-.19l-.58-.62-.56.64c-.13.14-.24.27-.34.4-.17.22-.51.49-1.09.49-.26,0-.9-.05-1.33-.51-.45-.49-.97-1.04-1.28-1.76-.31-.72-.12-1.53-.02-2.01.17-.75.37-1.49.57-2.21.08-.31.17-.61.25-.92.1-.38.2-.75.3-1.13.25-.93.51-1.89.74-2.84.13-.52.23-1.05.33-1.6.06-.34.13-.67.2-1,.11-.51.22-1.01.33-1.52l.15-.66.21-.96,1.32.08,2.37.13-.26-1.02c-.27-1.04.01-1.96.81-2.64.94-.8,1.91-1.69,3.15-2.87.42-.4.85-.59,1.31-.59s.86.18,1.25.55c.43.41.89.83,1.32,1.23.7.64,1.42,1.3,2.11,1.99.58.57.78,1.26.62,2.17l-.14.81,3.38.35.21.76c.05.2.11.39.17.59.14.47.27.95.38,1.45.09.43.16.85.22,1.27.07.48.15.93.25,1.36.15.66.33,1.29.52,1.97.14.5.28,1.01.41,1.52.13.51.24,1.01.35,1.5.1.46.2.89.3,1.32.04.17.1.35.17.55.12.35.24.7.3,1.12.12.77-.25,1.48-.37,1.67-.2.33-.43.6-.64.84-.1.11-.19.21-.26.3-.42.53-.9.8-1.44.8-.39,0-.95-.15-1.43-.84-.02-.03-.05-.07-.09-.12l-.56-.66-.59.64c-.58.63-.99.95-1.6.95-.67,0-1.08-.38-1.62-1.08l-1.04-1.36-.32,1.68c-.06.31-.11.61-.17.92-.04.24-.06.5-.07.78-.01.2-.02.41-.05.63-.02.23-.07.43-.11.62-.02.07-.03.13-.04.19l-.16.82-1.98.26-.35-.8Z"/>
  <g>
    <path class="cls-2" d="M14.21,29.09c-.15-.33-.36-.66-.42-1.01-.28-1.56-.52-3.14-.77-4.71-.28-1.68-.53-3.37-.85-5.05-.21-1.12-.55-2.21-.77-3.32-.34-1.7-.61-3.41-.94-5.12-.08-.42-.24-.82-.36-1.23-.17-.6-.09-1.09.43-1.53,1.09-.94,2.15-1.91,3.19-2.91.35-.33.61-.38.97-.04,1.13,1.07,2.31,2.1,3.41,3.2.61.6.23,1.35.09,2.03-.36,1.81-.74,3.61-1.1,5.42-.15.77-.29,1.54-.44,2.3-.21,1.04-.43,2.08-.63,3.13-.23,1.17-.44,2.33-.66,3.5-.2,1.03-.42,2.05-.59,3.08-.08.49-.08.99-.13,1.49-.02.24-.09.47-.13.71-.1.01-.19.03-.29.04Z"/>
    <path class="cls-2" d="M21.87,10.95c.18.66.39,1.31.53,1.97.18.88.27,1.78.47,2.65.27,1.18.63,2.34.93,3.51.24.94.42,1.88.65,2.82.13.53.37,1.03.45,1.56.04.29-.07.65-.22.91-.22.37-.54.67-.81,1.01-.34.43-.66.53-1.02.01-.25-.35-.6-.64-.8-1.01-.2-.38-.34-.83-.36-1.25-.04-1.42.02-2.84-.01-4.25-.06-2.38-.17-4.75-.24-7.13,0-.28.11-.56.17-.84.08,0,.17.02.25.03Z"/>
    <path class="cls-2" d="M6.79,10.93c.02.56.05,1.11.04,1.67-.04,3.46-.14,6.91-.11,10.37.01,1.25-.85,1.86-1.47,2.66-.07.09-.54.04-.67-.1-.4-.43-.83-.89-1.06-1.43-.15-.36-.05-.88.05-1.3.24-1.04.54-2.06.81-3.1.35-1.33.72-2.65,1.04-3.99.21-.87.36-1.76.54-2.64.15-.72.32-1.45.48-2.17.11,0,.23.01.34.02Z"/>
    <path class="cls-2" d="M7.76,11.18c.06.09.17.17.19.27.17.96.28,1.93.49,2.88.27,1.22.62,2.43.93,3.65.22.86.43,1.73.65,2.6.23.89.48,1.77.67,2.67.06.28.07.63-.05.87-.21.42-.52.8-.82,1.17-.53.65-.57.63-1.18.02-.76-.75-1.15-1.56-1.1-2.71.1-2.68.04-5.38.02-8.07,0-.84-.1-1.67-.12-2.51,0-.27.08-.55.13-.82.07,0,.13-.01.2-.02Z"/>
    <path class="cls-2" d="M20.75,11.21c.03.31.1.63.1.94-.04,2.9-.09,5.81-.12,8.71,0,.72.02,1.44.1,2.16.08.68-.09,1.23-.6,1.68-.07.06-.14.14-.2.21q-.99,1.09-1.86-.07c-.45-.6-.76-1.14-.35-1.99.38-.81.39-1.79.6-2.68.28-1.17.64-2.33.91-3.5.35-1.59.64-3.19.96-4.78.05-.22.14-.44.2-.66h.27Z"/>
  </g>
</svg>