<?xml version="1.0" encoding="UTF-8"?>
<svg id="Layer_1" xmlns="http://www.w3.org/2000/svg" viewBox="0 0 32 32">
  <defs>
    <style>
      .cls-1 {
        fill: #fff;
      }

      .cls-2 {
        fill: #ef4136;
      }
    </style>
  </defs>
  <path class="cls-1" d="M16.35,26.99c-.25,0-.5,0-.75,0-.2,0-.41,0-.61,0-2.95-.01-5.18-1.54-6.6-2.68-1.78-1.44-2.78-3.37-3.38-4.7-.36-.79-.45-1.61-.53-2.4-.02-.16-.04-.33-.06-.49-.05-.42-.04-.8-.03-1.17,0-.21.01-.41,0-.58-.08-2.17.78-3.98,1.55-5.32,1.26-2.19,3.16-3.85,5.65-4.92,1.24-.53,2.57-.66,3.82-.72.2,0,.4-.01.59-.01,3.42,0,6.42,1.47,8.91,4.37,1.01,1.17,1.69,2.5,2.04,3.94.03.11.06.23.09.34v.03c.2.73.41,1.55.2,2.5l-.12.52.07.21c.04.11.07.21.09.29.09.4.03.89-.17,1.39l-.27.66.48.24-.55,1.04c-.08.15-.15.3-.23.44v.02c-.22.41-.43.83-.7,1.23-.09.13-.19.24-.31.34l-.36.28.07.45c.03.22.05.44.05.67,0,1.54-.94,2.97-2.29,3.49-.33.13-.7.19-1.09.19-.5,0-1.04-.1-1.54-.3l-.25-.1-.71.22c-.13.04-.26.09-.38.13h-.04c-.4.16-.86.32-1.37.38-.38.04-.78.05-1.28.05ZM10.84,22.19c.34.24.7.47,1.08.68,1.21.66,2.49,1,3.81,1,.53,0,1.09-.06,1.65-.17l.62-.12v-.64c0-.24.01-.47.05-.7l.09-.48-.39-.28c-.85-.61-1.6-1.13-2.31-1.59l-.45-.3-.43.32c-.82.6-1.81.89-3.03.89-.07,0-.15,0-.22,0l-2.51-.07,2.04,1.46ZM15.29,7.13c-.88.08-1.77.31-2.65.66-.36.15-.72.32-1.07.52l-2.16,1.22,2.48.22c.76.07,1.54.32,2.32.76l.34.19.36-.16c.12-.05.23-.11.36-.18l.37-.2.03-.42c.04-.55.18-1.06.39-1.52l.59-1.23-1.36.13Z"/>
  <g>
    <path class="cls-2" d="M24.14,22.92c0,1.05-.66,2.07-1.55,2.42-.81.31-2.13-.05-2.81-.77-.68-.73-.82-1.81-.41-2.74.08-.18,0-.59-.15-.7-1.29-.94-2.6-1.86-3.95-2.72-.21-.13-.76-.03-.95.17-1.1,1.14-2.48,1.15-3.87,1-1.31-.14-2.96-1.82-3.18-3.18-.45-2.77.75-4.53,3.25-5.37,1.06-.36,2.21-.05,3.23.55.31.18.78.32,1.09.22.62-.2,1.21-.55,1.77-.91.15-.1.19-.47.19-.71,0-1.39.63-2.36,1.92-2.77.82-.26,1.56.08,2.21.56.71.53.99,1.29.88,2.14-.06.45-.35.86-.49,1.31-.05.17-.04.43.06.56.7.93,1.42,1.87,2.18,2.75.18.21.57.34.87.35.82.04,1.55.56,1.73,1.34.11.47-.37,1.37-.83,1.56-.88.35-1.61.12-2.1-.66-.4-.65-1.42-1.16-2.12-1-.14.03-.34.35-.32.5.12.92.23,1.86.49,2.74.1.35.53.77.89.87,1.3.34,1.98,1.11,1.98,2.47ZM16.36,15.4c-.09.03-.44.06-.49.19-.22.56-.37,1.16-.49,1.75-.03.14.1.39.23.48,1.34.95,2.68,1.9,4.05,2.8.18.12.56.11.77,0,.18-.1.36-.44.32-.63-.23-1.2-.51-2.4-.81-3.59-.04-.15-.21-.35-.36-.38-1.02-.22-2.05-.4-3.22-.62ZM19.53,13.99c-.07-.47,0-1.29-.9-1.71-.38-.18-.7-.47-1.09-.62-.26-.11-.59-.12-.87-.07-.27.05-.52.22-.76.37-.32.2-.7.37-.88.66-.09.14.2.53.32.8.05.13.1.27.15.4.2.58.54.97,1.19,1.03.64.06,1.27.18,1.9.27q.97.14.94-1.14ZM22.34,15.92c.42-.15,1.28.15.85-.58-.63-1.08-1.53-2.01-2.35-2.98-.12-.14-.44-.2-.62-.15-.12.03-.26.34-.24.51.12.84.29,1.68.46,2.52.02.09.16.18.27.21.57.17,1.14.33,1.63.47Z"/>
    <path class="cls-2" d="M25.86,15.03c-.18-.29-.47-.57-.53-.89-.64-3.69-2.63-6.34-6.14-7.64-2.3-.85-4.67-.74-7,.21-2.63,1.07-4.4,2.94-5.34,5.54-.37,1.01-.51,2.14-.51,3.22-.02,3.78,1.74,6.59,5.02,8.39,2.12,1.17,4.42,1.43,6.8.82.44-.11.76-.04.93.61-.51.16-1.03.41-1.57.46-.83.08-1.68.04-2.52.03-2.29-.01-4.16-1.04-5.88-2.43-1.41-1.14-2.33-2.66-3.05-4.27-.35-.77-.39-1.69-.5-2.56-.07-.54,0-1.1-.02-1.66-.07-1.73.56-3.24,1.4-4.7,1.19-2.08,2.95-3.5,5.11-4.43,1.07-.46,2.23-.57,3.42-.63,3.57-.17,6.34,1.36,8.57,3.96.84.98,1.48,2.13,1.8,3.46.19.79.46,1.53.28,2.34-.09.05-.17.09-.26.14Z"/>
    <path class="cls-2" d="M25.75,18.96c-.3.57-.55,1.11-.87,1.6-.1.15-.4.17-.61.25-.04-.22-.15-.47-.09-.67.09-.31.28-.59.44-.88.27-.5.57-.59,1.13-.3Z"/>
  </g>
</svg>