<?xml version="1.0" encoding="UTF-8"?>
<svg id="Layer_1" xmlns="http://www.w3.org/2000/svg" viewBox="0 0 32 32">
  <defs>
    <style>
      .cls-1 {
        fill: #fff;
      }

      .cls-2 {
        fill: #ef4136;
      }
    </style>
  </defs>
  <path class="cls-1" d="M15.09,28.57c-.25,0-.52-.05-.82-.17-.71-.26-1.54-.58-2.34-.99-1.05-.53-1.47-1.39-1.26-2.54.3-1.65.55-3.4.07-5.08-.24-.85-.74-1.4-1.48-1.66-.53-.18-1.09-.31-1.69-.44-.39-.09-.78-.18-1.18-.28-.3-.08-1.04-.35-1.35-1.04-.69-1.59-.72-3.15-.1-4.77l.26-.69-.31-.13.62-1.11c2.01-3.59,6.07-5.9,10.34-5.9.22,0,.44,0,.65.02,4.28.25,7.62,2.22,9.93,5.86l.73,1.15-.34.14.23.74c.12.43.21.86.31,1.27v.02c.04.17.08.34.12.51l.06.27-.06.27c-.05.19-.09.39-.14.58-.13.55-.26,1.13-.43,1.7-.2.7-.89,1.04-1.27,1.13-.6.14-1.2.23-1.71.31-1.48.22-2.34.82-2.63,1.83l-.02.06c-.31,1.07-.63,2.18-.36,3.2.21.81.32,1.63.41,2.4.06.51-.12,1.26-.66,1.67-.52.4-1.05.73-1.59.99-.6.29-1.24.48-1.72.61-.18.05-.36.07-.53.07-.21,0-.41-.04-.6-.11l-.28-.11-.28.11c-.18.07-.38.11-.59.11ZM15.95,9.95c-.72,0-1.41.14-2.12.44-.61.26-1.19.61-1.75,1.07l-.96.79,1.14.51c.62.28,1.16.53,1.65.77.52.26,1.04.68,1.46,1.17l.59.7.59-.71c.62-.75,1.47-1.32,2.55-1.69.2-.07.4-.15.6-.22l1.17-.45-.93-.84c-.61-.55-1.24-.93-1.92-1.17-.72-.26-1.39-.38-2.06-.38Z"/>
  <g>
    <path class="cls-2" d="M6.53,10.23c1.97-3.5,6.09-5.52,9.92-5.3,3.84.23,6.87,1.93,9.02,5.32-1.09.46-2.07.87-3.04,1.3-.44.19-.76.11-1.08-.25-.83-.91-1.79-1.64-2.96-2.06-1.68-.6-3.33-.62-5.01.09-1.11.47-2.02,1.15-2.85,1.99-.2.2-.67.31-.93.22-1.04-.38-2.05-.86-3.07-1.31Z"/>
    <path class="cls-2" d="M6.26,11.44c.93.4,1.82.78,2.7,1.17,1.48.65,2.98,1.26,4.42,1.97.52.26,1.01.72,1.34,1.21.54.81.77,1.75.75,2.77-.04,2.71,0,5.43.02,8.14,0,.67-.2.85-.83.62-.75-.28-1.5-.57-2.21-.94-.49-.25-.78-.56-.65-1.3.34-1.85.58-3.74.05-5.6-.33-1.16-1.07-2.04-2.21-2.43-.95-.33-1.97-.49-2.95-.75-.22-.06-.51-.21-.59-.39-.64-1.48-.59-2.91.16-4.47Z"/>
    <path class="cls-2" d="M26.37,13.73c-.18.76-.34,1.5-.55,2.23-.04.14-.26.28-.42.32-.53.12-1.08.21-1.62.3-1.66.25-3.09,1-3.56,2.65-.35,1.22-.74,2.53-.39,3.87.19.73.29,1.49.38,2.25.02.2-.07.51-.22.62-.43.33-.89.63-1.38.86-.49.23-1.01.4-1.53.54-.43.12-.72-.09-.71-.55.03-2.86.04-5.71.13-8.57.07-2.15,1.08-3.49,2.97-4.14,1.47-.51,2.88-1.23,4.31-1.86.47-.21.95-.42,1.42-.64.41-.2.66-.02.76.36.16.57.28,1.15.41,1.75Z"/>
  </g>
</svg>