<?xml version="1.0" encoding="UTF-8"?>
<svg id="Layer_1" xmlns="http://www.w3.org/2000/svg" viewBox="0 0 32 32">
  <defs>
    <style>
      .cls-1 {
        fill: #fff;
      }

      .cls-2 {
        fill: #ef4136;
      }
    </style>
  </defs>
  <path class="cls-1" d="M16.96,31.35c-1.51,0-2.87-1.02-3.54-2.66-.02-.06-.04-.12-.06-.17l-.04-.11-.07-.1c-.29-.4-.43-.83-.4-1.26.04-.53.3-1.01.81-1.45.43-.37.61-.71.62-1.11,0-.8-.72-1.53-1.55-1.57-.75-.03-1.41-.17-1.96-.4-.94-.39-1.4-1.34-1.21-2.49.07-.45.25-.84.52-1.13l.42-.46-.36-.51c-1.02-1.46-1.58-3.15-1.56-4.76.02-2.98,1.66-5.75,4.28-7.23l.29-.16.2-.85v-.07c.04-.23.09-.62.39-.97.4-.47.93-1.09,1.53-1.66.32-.3.7-.44.95-.53h.02s.08-.04.12-.06l.37-.17.37.08c1.12.25,2.02.83,2.67,1.72l.03.04c.16.23.35.48.5.79.13.26.18.51.21.68,0,.05.02.08.02.11l.2.87.29.17c2.61,1.47,4.25,4.22,4.27,7.18.01,1.69-.55,3.43-1.59,4.9l-.35.49.39.45c.21.24.33.5.42.66l.03.06.17.27v.34c-.02,1.54-1.05,2.61-2.52,2.61-.06,0-.11,0-.17,0-.05,0-.1,0-.15,0-.46,0-.9.13-1.4.42l-.21.12-.1.22c-.19.41-.18,1.1.02,1.5l.08.16.14.11c.58.46.91.98.96,1.54.06.55-.13,1.08-.57,1.61l-.06.07-.04.09c-.03.06-.07.17-.11.25-.12.29-.27.66-.55.99-.74.87-1.72,1.35-2.75,1.35h0ZM16.95,11.38c-.77,0-1.76.99-1.77,1.75v.04c.03.71.96,1.7,1.68,1.79h.1s.1,0,.1,0c.7-.1,1.61-1.05,1.69-1.76v-.12s-.01-.12-.01-.12c-.14-.67-1.05-1.51-1.71-1.58h-.04s-.04,0-.04,0Z"/>
  <g>
    <path class="cls-2" d="M16.94,20.19c-4.28.35-7.21-3.72-7.19-7.01.03-3.67,2.97-7.18,7.26-7.17,4.08.01,7.14,3.43,7.16,7.1.03,3.55-2.94,7.42-7.23,7.07ZM16.97,18.16c2.78-.04,4.98-2.38,4.92-4.95-.07-2.96-2.1-4.94-4.92-4.93-2.83,0-4.84,1.95-4.91,4.93-.06,2.58,2.12,4.9,4.91,4.96Z"/>
    <path class="cls-2" d="M23.24,20.28c0,.95-.62,1.52-1.46,1.47-.86-.05-1.59.2-2.3.63-1.21.73-1.18,3.13-.17,3.91.62.48.83.9.25,1.59-.33.38-.4.98-.72,1.36-1.36,1.6-3.48,1.1-4.34-1-.07-.17-.1-.38-.22-.51-.44-.5-.31-.87.16-1.27.59-.51,1-1.13,1.01-1.97.01-1.42-1.2-2.67-2.65-2.73-.53-.02-1.09-.11-1.58-.31-.5-.2-.6-.72-.51-1.23.12-.7.64-.92,1.21-.49,1.81,1.36,3.82,2.05,6.08,1.74,1.42-.2,2.74-.73,3.88-1.66.22-.18.68-.35.85-.24.28.17.42.58.51.72ZM15.31,27.26c0,1.07.7,1.85,1.65,1.84.94-.01,1.67-.79,1.67-1.76,0-1-.7-1.72-1.67-1.71-.95,0-1.66.7-1.66,1.63Z"/>
    <path class="cls-2" d="M16.88,2.68c.86.19,1.5.61,1.98,1.27.15.21.31.42.43.66.08.17.1.38.15.57-.2.04-.42.15-.6.1-1.25-.32-2.49-.38-3.74,0-.18.05-.4-.05-.6-.08.05-.19.04-.44.15-.58.45-.54.93-1.08,1.44-1.56.21-.2.54-.27.8-.38Z"/>
    <path class="cls-2" d="M12.86,13.13c.05-2.2,1.83-3.99,4.03-4,2.35-.01,4.18,1.73,4.15,4.02-.03,2.57-1.92,4.07-4.09,4.08-2.08,0-4.01-1.51-4.1-4.1ZM16.98,10.23c-1.41-.02-2.94,1.47-2.96,2.89-.02,1.37,1.51,2.97,2.88,3.01,1.35.04,2.95-1.54,3.01-2.96.05-1.31-1.55-2.92-2.93-2.94Z"/>
  </g>
</svg>