<?xml version="1.0" encoding="UTF-8"?>
<svg id="Layer_1" xmlns="http://www.w3.org/2000/svg" viewBox="0 0 32 32">
  <defs>
    <style>
      .cls-1 {
        fill: #fff;
      }

      .cls-2 {
        fill: #ef4136;
      }
    </style>
  </defs>
  <path class="cls-1" d="M16.77,30.01c-.5,0-1.17-.12-1.51-.69-.54-.89-1.06-1.87-1.01-3.17.05-1.32.04-2.67.03-3.97,0-.56,0-1.12,0-1.68v-3.13l-1.76,2.92c-.54.9-1.09,1.81-1.64,2.71-.8,1.32-2.24,2.17-3.66,2.17-.45,0-.87-.09-1.26-.26-.49-.22-1.02-.52-1.2-1.18-.14-.48-.04-.96.31-1.51l.76-1.21-1.48.02c-.59,0-1.21-.13-1.82-.4-.58-.25-.93-.63-1.06-1.13-.12-.5,0-.99.39-1.48l1.12-1.4c1.38-1.72,2.81-3.5,4.19-5.27l.28-.35c.85-1.08,1.66-2.1,2.38-3.19.77-1.15,1.74-2.07,2.97-2.84.15-.09.29-.24.58-.55.2-.22.41-.45.67-.66.66-.55,1.61-.87,2.61-.87,1.38,0,2.6.6,3.36,1.65l.1.14.15.08c1.67.95,2.79,2.44,3.77,3.76l.07.1c1.46,1.95,2.99,3.9,4.46,5.79.48.61.96,1.22,1.43,1.84.39.5.82,1.03,1.33,1.61.43.5.6,1.02.5,1.54-.11.51-.45.92-1.04,1.2-.55.27-1.15.41-1.76.41-.05,0-.11,0-.16,0l-1.45-.06.76,1.23c.37.6.47,1.14.29,1.65-.26.76-1,1.02-1.28,1.12-.35.13-.72.19-1.11.19-1.43,0-2.85-.86-3.71-2.25-.59-.96-1.27-2.07-1.93-3.16l-1.44-2.38v3.57c.02,1.87.03,3.8-.02,5.7-.02.84-.4,1.57-.74,2.21v.02c-.09.15-.17.29-.24.44-.12.26-.45.7-1.24.7ZM16.09,6.61l-.35.42.25.49.49.74.67-.52.82-.69-1.41-.89-.46.46Z"/>
  <path class="cls-2" d="M15.43,20.49c0-1.66.05-3.32-.02-4.98-.05-1.19-.25-2.37-.41-3.56-.02-.13-.25-.35-.26-.34-.37.24-.77.46-1.08.77-.1.1-.07.49.04.63.82,1.04.63,2.04-.01,3.09-1.28,2.08-2.53,4.19-3.8,6.28-.78,1.28-2.37,1.94-3.47,1.46-.7-.31-.71-.53-.27-1.17.89-1.3,1.74-2.62,2.58-3.95,1.05-1.67,2.06-3.37,3.13-5.04.52-.82,1.1-1.6,1.69-2.37.15-.2.4-.35.64-.45.46-.19.46-.56.35-.9-.25-.78-.56-1.55-.89-2.31-.16-.37-.46-.38-.75-.1-.32.32-.64.65-.96.98-.43.45-.43.85-.19,1.48.22.59.27,1.54-.06,2.01-1.66,2.34-3.41,4.62-5.24,6.83-.89,1.07-2.13,1.3-3.46.73-.45-.19-.52-.44-.22-.82,1.78-2.22,3.56-4.44,5.32-6.67.93-1.18,1.88-2.36,2.71-3.61.7-1.04,1.56-1.84,2.62-2.5.53-.33.89-.9,1.38-1.3,1-.84,3.21-.93,4.29.57.12.17.26.36.43.45,1.6.84,2.62,2.24,3.67,3.64,1.93,2.58,3.93,5.1,5.91,7.64.44.57.9,1.12,1.37,1.66.35.41.35.69-.17.94-1.03.5-2.32.37-3.1-.5-1.04-1.16-1.99-2.39-2.96-3.6-.78-.97-1.56-1.94-2.29-2.95-.73-1.01-1.06-1.65-.35-2.6.34-.46.29-.93-.14-1.35-.36-.35-.65-.77-1.02-1.11-.32-.29-.65-.31-.82.2-.27.78-.58,1.55-.81,2.34-.06.2.09.57.26.71.82.64,1.48,1.37,2.03,2.28,1.99,3.28,4.05,6.51,6.09,9.76.39.62.31.88-.37,1.12-1.14.41-2.62-.24-3.44-1.58-1.36-2.21-2.71-4.42-4-6.66-.45-.77-.43-1.63.12-2.43.15-.23.32-.66.21-.81-.24-.33-.63-.56-1-.76-.06-.03-.46.32-.48.52-.15,1.5-.31,3-.33,4.5-.04,3.32.05,6.64-.04,9.95-.02.75-.52,1.49-.87,2.21-.04.07-.64.04-.72-.1-.46-.77-.88-1.54-.84-2.53.07-1.9.02-3.8.02-5.7h0ZM18.61,7.13c0-1.05-.93-1.95-1.99-1.93-1.07.02-1.94.94-1.91,2.01.03.98.98,1.96,1.95,1.93.76-.02,2.01-.86,1.94-2.01Z"/>
</svg>