<?xml version="1.0" encoding="UTF-8"?>
<svg id="Layer_1" xmlns="http://www.w3.org/2000/svg" viewBox="0 0 32 32">
  <defs>
    <style>
      .cls-1 {
        fill: #fff;
      }

      .cls-2 {
        fill: #ef4136;
      }
    </style>
  </defs>
  <path class="cls-1" d="M18.11,26.59h-.79c-.08.01-.16.02-.24.02-.16,0-.31,0-.47,0l-.69-.02v2.58s-1.35-.5-1.35-.5c-.88-.32-1.1-1.07-1.19-1.75-.01-.08-.03-.18-.04-.23v-.04s-.02-.04-.02-.04c-.23-.64-.42-1.29-.61-1.92v-.02c-.14-.45-.27-.88-.41-1.31-.18-.56-.38-1.12-.57-1.66v-.03c-.2-.54-.39-1.09-.57-1.65-.15-.47-.02-1.06.33-1.44.67-.73,1.39-1.5,2.13-2.24l.47-.46-.45-.48c-.71-.75-1.39-1.48-2.05-2.19-.44-.47-.48-1.22-.33-1.72.24-.82.51-1.65.77-2.45.17-.53.34-1.05.5-1.57.14-.46.28-.91.41-1.37v-.04c.21-.67.42-1.36.64-2.04.14-.43.45-.66.64-.8l.06-.05,1.7-1.62v3.64s.87.02.87.02c.09,0,.18,0,.27,0,.08,0,.16,0,.24,0l.69-.02v-.67s-.02-.28-.02-.28c0-.15.01-.26.04-.38,0-.05.02-.12.03-.21l.36-2.44,1.45,1.99c.06.08.13.17.2.25.18.22.39.47.5.83.23.76.45,1.53.67,2.27v.05c.25.82.49,1.66.74,2.48.12.4.27.79.44,1.2.15.38.3.76.43,1.16.12.38.21,1.15-.25,1.69-.47.55-.98,1.08-1.46,1.58l-.04.04c-.19.2-.39.41-.58.61l-.03.03-.44.46s.73.77.87.92c.54.56,1.1,1.15,1.63,1.75.36.41.51,1.11.34,1.67-.27.91-.57,1.82-.85,2.7-.16.48-.31.96-.46,1.44-.13.4-.25.8-.37,1.2v.04c-.22.68-.43,1.36-.66,2.04-.13.39-.4.61-.61.78-.08.06-.14.12-.2.17l-1.77,1.69.09-3.64Z"/>
  <g>
    <path class="cls-2" d="M19.09,27.81c.06-2.56.11-4.88.19-7.2.02-.53-.16-.91-.52-1.28-2.16-2.26-4.3-4.53-6.43-6.82-.14-.15-.17-.53-.1-.75.4-1.34.85-2.67,1.26-4.01.36-1.14.68-2.3,1.05-3.44.06-.18.3-.3.44-.43,0,1.73,0,3.43,0,5.12,0,.73-.11,1.47-.06,2.2.03.38.22.81.47,1.1,1.38,1.52,2.8,3,4.21,4.49.75.79,1.51,1.57,2.23,2.38.14.16.19.5.13.71-.41,1.38-.88,2.75-1.31,4.13-.34,1.09-.66,2.18-1.02,3.26-.06.17-.28.29-.54.54Z"/>
    <path class="cls-2" d="M14.92,27.71c-.62-.23-.47-.93-.65-1.44-.38-1.07-.66-2.16-1.01-3.24-.37-1.12-.77-2.22-1.14-3.34-.04-.13.02-.35.12-.45.72-.79,1.45-1.57,2.22-2.32.11-.11.51-.1.62.01,1.53,1.57,1.49.96.23,2.53-.23.29-.36.75-.36,1.14-.03,2.37-.02,4.73-.02,7.11Z"/>
    <path class="cls-2" d="M19.1,3.77c.25.34.48.53.55.78.49,1.6.92,3.21,1.41,4.81.25.81.61,1.58.87,2.38.07.22.07.57-.06.72-.65.76-1.36,1.47-2.05,2.2-.38.4-.69.39-.99-.09-.14-.23-.34-.44-.55-.59-.53-.38-.44-.8-.02-1.11.98-.72,1.06-1.69.99-2.78-.11-1.96-.15-3.93-.22-5.9,0-.08.02-.15.06-.41Z"/>
    <path class="cls-2" d="M17.07,24.84c.36,0,.72-.03,1.06.02.15.02.28.22.41.34-.13.13-.25.37-.39.38-.73.04-1.47.04-2.19,0-.16-.01-.29-.29-.44-.44.16-.09.31-.25.48-.27.35-.04.71-.01,1.07-.01h0Z"/>
    <path class="cls-2" d="M17.13,6.2c.33,0,.67-.04,1,.02.15.03.27.24.4.36-.13.13-.26.35-.4.36-.71.04-1.42.04-2.12,0-.14,0-.27-.23-.41-.36.14-.12.26-.34.41-.36.37-.05.75-.02,1.12-.02Z"/>
    <path class="cls-2" d="M17.14,23.44c-.35,0-.71.03-1.06-.01-.16-.02-.31-.2-.46-.31.15-.14.29-.38.44-.39.66-.04,1.33-.04,2,0,.16.01.31.26.46.39-.17.11-.33.28-.51.32-.28.05-.58.01-.87.01,0,0,0,0,0,0Z"/>
    <path class="cls-2" d="M18.54,21.15c-.18.08-.35.22-.53.23-.62.02-1.25.02-1.87-.02-.17-.01-.33-.23-.49-.35.17-.11.34-.3.52-.31.6-.04,1.21-.03,1.81,0,.2,0,.38.15.58.23,0,.07,0,.15,0,.22Z"/>
    <path class="cls-2" d="M17.02,8.97c-.34,0-.68.03-1.01-.01-.14-.02-.26-.19-.39-.29.12-.11.23-.31.35-.32.71-.04,1.43-.05,2.14-.01.14,0,.26.24.4.36-.14.09-.27.24-.42.26-.35.04-.71.01-1.07.01h0Z"/>
    <path class="cls-2" d="M15.68,10.47c.83,0,1.67-.01,2.5.01.11,0,.22.18.33.28-.1.11-.2.32-.31.32-.75.03-1.51.04-2.26,0-.14,0-.26-.29-.38-.45.04-.05.08-.11.11-.16Z"/>
  </g>
</svg>