<?xml version="1.0" encoding="UTF-8"?>
<svg id="Layer_1" xmlns="http://www.w3.org/2000/svg" viewBox="0 0 32 32">
  <defs>
    <style>
      .cls-1 {
        fill: #fff;
      }

      .cls-2 {
        fill: #ef4136;
      }
    </style>
  </defs>
  <path class="cls-1" d="M10.08,30.35c-1.44,0-2.24-1.13-2.58-1.61l-.72-1.01.25-.15-.07-.5c-.03-.25-.01-.5.07-.74l.08-.24-.08-.24c-.06-.2-.09-.42-.09-.65,0-.4,0-.8,0-1.22,0-.8-.02-1.63.05-2.46.06-.72.52-1.51,1.15-1.96l.78-.55-.71-.64c-.86-.78-1.27-1.91-1.26-3.43,0-.45.03-.89.05-1.31.02-.42.04-.81.05-1.2,0-.36.08-.69.24-.99l.13-.25-.06-.28c-.09-.4-.02-.88.19-1.22.11-.17.43-.69.97-.95l.33-.16c1.6-.76,3.25-1.55,5.19-1.75l.31-.03c1.56-.16,3.03-.32,4.44-.69.09-.02.18-.05.27-.08l.69-.21-.09-.65v-.1c-.05-.31-.12-.64-.19-.89-.17-.71-.06-1.4.33-1.95.4-.57,1.05-.93,1.83-1.01l.33-.03.3.14c.11.05.23.11.35.16h.03c.32.16.69.32,1.04.54l.2.12v.02s.11.09.11.09c.32.3.52.7.57,1.13l.02.14.87,1.72-.63.59.12.44c.04.14.06.28.06.41,0,.2,0,.4.01.59.02.78.03,1.59-.04,2.4-.09,1.05-.51,1.95-1.27,2.76l-.74.79,1,.44c.52.23.86.7,1,1.41.3,1.44.16,2.93-.39,4.3l-.23.58.62.42-.37.88s-.05.14-.08.23c-.1.3-.23.69-.53,1.04-1.53,1.79-3.42,2.83-5.6,3.1-1.88.23-3.54.49-5.06.8-.23.05-.48.11-.74.18l-.65.17.09.67c.07.5.06,1.02,0,1.49-.11.76-.89,1.3-1.58,1.37-.1.01-.21.02-.31.02Z"/>
  <g>
    <path class="cls-2" d="M17.35,14.97c.49,0,.99-.03,1.48,0,1.39.1,2.78.24,4.13-.21.55-.18.74.11.83.57.59,2.87-.93,5.81-3.6,7.09-1.65.79-3.37,1.11-5.19,1.18-1.06.05-2.13.38-3.15.73-1.05.36-2.03.9-3.05,1.33-.39.17-.71.11-.7-.45.02-1.2-.05-2.41.04-3.6.03-.4.36-.91.71-1.14.75-.49,1.59-.84,2.4-1.22.34-.16.7-.19.82-.68.03-.13.58-.17.9-.19,1.21-.07,2.43-.05,3.62-.2,1-.12,2.02-.32,2.95-.69.95-.38,1.82-.99,2.71-1.53.13-.08.19-.28.28-.43-.19-.04-.38-.11-.57-.12-1.44-.04-2.88-.07-4.31-.11-.12,0-.24-.12-.36-.19.01-.06.03-.11.04-.17Z"/>
    <path class="cls-2" d="M11.65,18.31c-.27.02-.55.1-.81.05-1.94-.41-2.74-1.4-2.72-3.41,0-.84.09-1.67.1-2.51,0-.54.32-.81.74-1.04,1.31-.71,2.6-1.46,4.1-1.71,1.28-.22,2.54-.59,3.83-.74,1.89-.22,3.68-.66,5.3-1.67.34-.21.6-.54.92-.78.14-.11.34-.2.5-.18.08,0,.2.26.21.41.01.96.06,1.93-.03,2.88-.13,1.47-1.1,2.37-2.27,3.12-1.54.99-3.24,1.41-5.06,1.47-.31,0-.69-.12-.8.39-.02.09-.37.2-.53.16-2.26-.52-4.05.66-5.9,1.61-.53.27-.23.65.1.82.61.31,1.26.52,1.9.77.14.06.29.09.44.14,0,.07-.02.15-.02.22Z"/>
    <path class="cls-2" d="M24,5.01c-.48.45-.89.96-1.41,1.31-1.2.82-2.54,1.37-3.98,1.62-1.57.27-3.17.42-4.72.79-1.5.36-3.02.78-4.33,1.68-.2.13-.39.29-.61.37-.13.05-.36.03-.43-.05-.07-.09-.06-.32.01-.43.12-.2.29-.42.49-.51,1.65-.78,3.27-1.61,5.14-1.8,1.65-.18,3.32-.34,4.92-.76,1.57-.41,3.01-1.2,4.04-2.55.13-.17.33-.28.49-.42.1.2.2.39.38.76Z"/>
    <path class="cls-2" d="M23.49,20.82c-.14.32-.2.71-.42.97-1.28,1.5-2.86,2.46-4.86,2.71-1.73.21-3.45.47-5.15.82-1.34.27-2.64.72-3.79,1.5-.12.08-.23.19-.36.22-.24.07-.67.18-.71.12-.2-.39,0-.68.38-.85.87-.38,1.72-.8,2.61-1.13,1.74-.64,3.54-.93,5.41-1.08,2.39-.2,4.65-1,6.17-3.09.11-.15.31-.24.47-.36l.27.18Z"/>
    <path class="cls-2" d="M21.74,2.37c.44.21.9.39,1.31.64.44.28.46.82.08,1.14-.49.41-1,.81-1.52,1.18-.52.37-.75.24-.82-.38-.04-.35-.11-.7-.2-1.05-.2-.81.28-1.44,1.15-1.53Z"/>
    <path class="cls-2" d="M8.45,28.08c.62-.37,1.16-.75,1.75-1.03.13-.06.57.17.6.32.09.46.1.96.03,1.43-.02.16-.35.37-.56.39-.78.08-1.29-.36-1.82-1.11Z"/>
  </g>
</svg>