<?xml version="1.0" encoding="UTF-8"?>
<svg id="Layer_1" xmlns="http://www.w3.org/2000/svg" viewBox="0 0 32 32">
  <defs>
    <style>
      .cls-1 {
        fill: #fff;
      }

      .cls-2 {
        fill: #ef4136;
      }
    </style>
  </defs>
  <path class="cls-1" d="M13.96,29.42c-1.12,0-2.29-.4-3.38-1.15-.36-.24-.68-.52-.96-.77l-.19-.16c-.28-.24-.49-.49-.63-.75l-.33-.61-.86.35-.1.09c-.36.32-.8.51-1.28.53h-.14s-.02.01-.02.01l-.19-.03c-.4-.05-.79-.22-1.11-.49-.82-.68-1.61-1.36-2.21-2.23-.86-1.25-.68-2.46.56-3.71,1.51-1.53,3.06-3.07,4.56-4.56l.08-.08c.71-.71,1.43-1.42,2.14-2.13l.64-.63c.34-.34.68-.68,1.03-1.03l.53-.53-.52-.54s-.03-.03-.05-.05c-.39-.44-.58-1.02-.52-1.61.12-1.12,1.09-2,2.21-2,.18,0,.36.02.53.07.91.24,2.49,1.24,3.14,2.68l.46,1.03,1.85-1.88c.53-.54,1.06-1.08,1.6-1.62,1.7-1.73,3.4-3.47,5.11-5.2.26-.27.55-.45.81-.62l.03-.02c.09-.06.18-.12.27-.18l1.11-.78.59,1.22c.26.53.32,1.01.21,1.46l-.15.59,1.46.77-1.13,1.47.84-.08-.51,1.66-.02.09c-.05.27-.14.69-.47,1.04-.59.61-1.2,1.21-1.79,1.79-.33.32-.66.64-.98.97-.14.14-.29.27-.42.39-.33.3-.5.46-.59.61l-.02.03-.02.03c-.28.56-.5,1.28-.68,2.18-.17.84-.29,1.68-.41,2.57-.07.49-.14.99-.22,1.48-.06.37-.2.67-.34.95-.31.61-.85.97-1.44.97-.25,0-.49-.06-.71-.18l-.78-.41-.31.82c-.1.26-.22.5-.33.7-.06.12-.12.23-.16.31l-.26.56.49.38c.11.08.21.17.31.26.05.05.11.1.18.16l.87.74-.74.87c-1.42,1.69-3.04,3.34-5.31,4.01-.43.13-.88.19-1.34.19Z"/>
  <g>
    <path class="cls-2" d="M19.72,24.48c-1.35,1.6-2.77,3.06-4.75,3.64-1.29.38-2.61-.02-3.74-.8-.37-.26-.71-.56-1.05-.86-.54-.46-.58-.81-.07-1.31.87-.85,1.8-1.64,2.66-2.51,2.22-2.23,4.4-4.48,6.61-6.72,2.66-2.7,5.33-5.38,7.99-8.07.07-.07.13-.18.2-.2.26-.05.52-.06.78-.08-.07.23-.07.52-.22.67-.9.93-1.84,1.83-2.76,2.74-.44.44-1,.83-1.26,1.36-.38.77-.62,1.63-.79,2.48-.27,1.35-.42,2.72-.64,4.09-.03.21-.13.41-.23.6-.17.34-.44.48-.74.17-.96-.97-2.2-.23-2.48.92-.11.45-.4.85-.58,1.28-.44,1.08-.31,1.51.61,2.19.13.1.25.21.46.39Z"/>
    <path class="cls-2" d="M14.39,10.47c-.54.03-.84.06-1.14.06-.67,0-1.14-.47-1.07-1.06.06-.6.7-1.09,1.29-.93.97.26,2.8,1.63,2.52,3.09-.1.51-.31,1.09-.67,1.45-3.19,3.25-6.43,6.46-9.65,9.68-.12.12-.27.22-.35.36-.11.22-.16.46-.24.7.22,0,.45.02.65-.03.68-.19,1.16.14,1.42.67.11.22-.08.66-.26.92-.37.52-.95.55-1.39.18-.72-.6-1.47-1.23-1.99-1.99-.57-.83-.39-1.41.43-2.24,2.25-2.27,4.52-4.51,6.78-6.77,1-1,2.01-1.99,2.99-3.02.24-.25.38-.6.67-1.07Z"/>
    <path class="cls-2" d="M27.7,2.55c.33.68.02,1.01-.32,1.34-3.26,3.19-6.53,6.36-9.77,9.57-3.05,3.02-6.07,6.06-9.1,9.1-.08.08-.15.21-.26.25-.22.09-.45.14-.67.2.07-.23.08-.5.22-.68.23-.29.55-.51.82-.78,2.58-2.58,5.17-5.16,7.73-7.76,3.47-3.51,6.92-7.05,10.39-10.56.26-.26.6-.43.95-.68Z"/>
    <path class="cls-2" d="M28.5,5.25c-.25.33-.4.58-.6.77-1.21,1.16-2.46,2.28-3.66,3.46-2.23,2.19-4.42,4.41-6.64,6.6-2.1,2.07-4.23,4.12-6.32,6.19-.66.66-1.25,1.39-1.9,2.06-.17.17-.47.21-.71.31.07-.26.07-.6.23-.77,1.91-1.93,3.85-3.81,5.76-5.74,4.18-4.23,8.33-8.49,12.51-12.72.2-.21.51-.33.79-.42.12-.04.29.14.53.26Z"/>
  </g>
</svg>