<?xml version="1.0" encoding="UTF-8"?>
<svg id="Layer_1" xmlns="http://www.w3.org/2000/svg" viewBox="0 0 32 32">
  <defs>
    <style>
      .cls-1 {
        fill: #fff;
      }

      .cls-2 {
        fill: #ef4136;
      }
    </style>
  </defs>
  <path class="cls-1" d="M16.27,26.95c-.1,0-.21,0-.31,0-4.91-.24-8.7-2.56-10.96-6.71-.62-1.14-.98-2.37-1.32-3.56l-.08-.27c-.09-.31-.3-1.03-.03-1.68l.12-.3-.13-.3c-.12-.29-.14-.63-.06-.97.11-.45.36-.81.7-1.01.07-.04.14-.08.21-.12l.03-.02c.48-.29,1.08-.65,1.78-.73.06,0,.11-.02.15-.02l.44-.07.16-.45c.94-2.62,2.78-4.56,5.34-5.61,1.28-.53,2.56-.79,3.8-.79.51,0,1.02.04,1.52.13,1.37.24,2.66.72,3.95,1.49,1.7,1.01,2.95,2.57,3.81,4.76l.17.43.46.05c1.08.12,1.88.53,2.45,1.28.3.4.55,1.05.33,1.65,0,.01,0,.02-.01.04l-.11.28.11.28c.13.33.16.72.09,1.14-.15.94-.33,1.69-.57,2.35-.74,2.07-1.85,3.81-3.29,5.17-1.6,1.51-3.19,2.44-4.88,2.87-.2.05-.4.1-.6.15-1.01.26-2.14.56-3.27.56ZM16.09,13.09c-.4.04-.87.37-.9,1.13v.13s.04.13.04.13c.09.27.31.5.48.63l.49.35.46-.39c.21-.18.45-.52.45-.89,0-.46-.27-.83-.54-.99l-.22-.13-.25.03Z"/>
  <g>
    <path class="cls-2" d="M24.72,14.9c.74-.04,1.49-.08,2.23-.12.61-.04.89.23.79.88-.12.73-.27,1.46-.52,2.15-.64,1.79-1.6,3.4-3,4.72-1.26,1.19-2.67,2.16-4.36,2.59-1.26.32-2.57.73-3.83.67-4.4-.21-7.86-2.18-10-6.11-.6-1.11-.95-2.38-1.31-3.6-.31-1.07-.03-1.3,1.07-1.25,1.2.05,2.4.02,3.6.05.48.01.65-.19.63-.64-.06-1.86.7-3.39,2.02-4.62,1.72-1.6,3.8-1.92,6.01-1.31,1.74.48,2.94,1.69,3.7,3.26.38.78.44,1.73.58,2.61.07.44.13.73.66.71.58-.03,1.15,0,1.73,0,0,0,0,.02,0,.03ZM16.17,19.78c3.4.24,5.65-2.92,5.74-5.15.13-3.47-2.59-6.01-5.51-6.12-3.51-.14-5.87,2.93-5.97,5.59-.1,2.67,2.66,6.03,5.74,5.68ZM14.74,24.68c.93,0,1.84.01,2.75-.02.07,0,.21-.35.18-.53-.07-.51-.17-1.01-.32-1.5-.21-.69-.42-1.39-.74-2.03-.19-.39-.62-.4-.84.04-.24.48-.45.99-.58,1.52-.19.77-.29,1.57-.47,2.53ZM13.88,20.92c-.13-.43-.23-.78-.34-1.12-.36.21-.72.41-1.07.63-.08.05-.12.15-.18.22-.53.7-1.05,1.4-1.58,2.1-.21.28-.25.49.15.65.52.22,1.03.48,1.53.74.41.21.56.04.63-.36.06-.37.17-.73.27-1.09.18-.6.39-1.2.57-1.78ZM19.05,19.6c-.2.24-.4.36-.39.48.02.52.05,1.04.16,1.54.15.71.4,1.4.58,2.1.08.31.15.58.56.4.54-.24,1.09-.46,1.6-.77.14-.09.23-.52.14-.67-.37-.61-.79-1.19-1.25-1.74-.39-.46-.87-.85-1.39-1.35ZM11.75,18.52c-.27-.13-.49-.34-.66-.31-.39.07-.77.24-1.13.41-.76.36-1.5.77-2.27,1.13-.41.19-.31.42-.13.68.28.38.58.76.88,1.12.26.32.54.36.84.02.52-.59,1.08-1.15,1.58-1.75.3-.36.53-.78.88-1.31ZM5.74,16.52c.17.51.36,1.02.5,1.54.13.48.33.5.71.25.39-.26.81-.46,1.23-.66.45-.22.93-.37,1.34-.64.24-.16.38-.48.56-.73-.3-.13-.6-.37-.9-.37-.91-.02-1.82.15-2.71.05-.57-.06-.7.03-.73.56ZM25.05,20.16c-.27-.23-.41-.39-.59-.49-.41-.23-.84-.41-1.26-.63-.46-.24-.9-.53-1.38-.71-.23-.09-.53,0-.8.02.05.28.02.64.17.84.64.83,1.33,1.63,2.02,2.42.08.09.33.17.36.13.47-.49.92-.99,1.46-1.59ZM25.98,18.43c.2-.68.4-1.27.54-1.89.1-.45-.06-.68-.6-.57-.32.06-.66-.02-.99-.02-.69-.02-1.39-.06-2.08-.03-.17,0-.41.18-.49.34-.06.1.06.41.18.48,1.11.57,2.23,1.11,3.45,1.7Z"/>
    <path class="cls-2" d="M25.68,14c-.1,0-.19,0-.29,0-1.75,0-1.67-.02-2.18-1.66-.77-2.52-2.38-4.26-4.95-5.13-1.09-.37-2.2-.41-3.25-.24-1.83.29-3.41,1.23-4.56,2.72-.8,1.04-1.34,2.23-1.49,3.57-.06.48-.34.75-.88.74-.96-.02-1.92.01-2.88-.02-.2,0-.47-.14-.58-.3-.07-.11.03-.48.15-.55.5-.29,1.02-.66,1.57-.72.88-.11,1.37-.38,1.7-1.3.82-2.3,2.42-4.01,4.69-4.94,1.47-.6,3.02-.88,4.68-.59,1.3.23,2.45.69,3.56,1.35,1.73,1.03,2.75,2.62,3.42,4.45.22.6.55.91,1.17.93.76.03,1.48.2,1.97.85.12.15.22.42.16.57-.05.14-.32.25-.51.26-.5.04-1.01.01-1.51.01Z"/>
    <path class="cls-2" d="M20.69,14.14c.18,2.71-2.3,4.67-4.52,4.63-2.34-.04-4.67-1.95-4.55-4.8.1-2.63,2.13-4.4,4.61-4.43,2.08-.03,4.63,1.7,4.46,4.6ZM18.26,14.17c0-1.21-.96-2.25-2.08-2.24-1.23,0-2.15,1.01-2.15,2.34,0,1.09,1.07,2.17,2.14,2.17,1.08,0,2.09-1.11,2.09-2.27Z"/>
  </g>
</svg>