<?xml version="1.0" encoding="UTF-8"?>
<svg id="Layer_1" xmlns="http://www.w3.org/2000/svg" viewBox="0 0 32 32">
  <defs>
    <style>
      .cls-1 {
        fill: #fff;
      }

      .cls-2 {
        fill: #ef4136;
      }
    </style>
  </defs>
  <path class="cls-1" d="M12.46,29.75l.49-1.05-1.39-.65-.49,1.04-.08-.04-.13-.53c-.03-.12-.08-.26-.12-.41-.13-.41-.28-.87-.29-1.39-.02-1.44,0-2.97.09-4.81.04-.88.17-1.56.43-2.14.26-.61.75-1,1.15-1.31l.13-.11c.27-.22.55-.42.81-.6.31-.22.6-.43.85-.65.06-.06.11-.11.15-.17l.11-.16.02-.19c.01-.1.02-.32-.09-.65-.19-.57-.52-.89-1-.95l-.18-.02-.17.06c-.15.05-.36.16-.61.3-.38.22-.74.52-1.13.84l-.34.28-.07.23c-.25.84-.97,1.33-1.98,1.33-.11,0-.23,0-.35-.01-.08,0-.17,0-.25,0s-.17,0-.26,0c-.1,0-.19,0-.29,0h-.09c-1.42-.01-2.69-1.08-2.89-2.44-.09-.6.16-1.18.38-1.55.76-1.28,1.52-2.57,2.28-3.85.59-.99,1.18-1.99,1.77-2.98l.29-.49-.38-.42c-.37-.41-.72-.83-1.06-1.23-.19-.22-.38-.44-.57-.67l-.58-.67,1.14-1.71.85.3c.16.06.31.11.47.16.38.13.77.26,1.16.43.95.42,1.95.54,3.12.68l.24.03c2.5.31,4.64,1.03,6.54,2.19,1.97,1.2,3.59,2.69,4.81,4.42,1.46,2.07,2.29,3.97,2.61,5.97l.03.17c.14.84.2,1.34-.13,1.89-.32.54-.83.75-1.63,1.05-2.11.78-3.99,2.02-5.56,3.13-2.01,1.43-4.01,3.17-6.27,5.48-.13.13-.26.29-.4.48-.08.11-.16.24-.24.38-.05.07-.09.15-.14.22l-.55.85-.22-.1Z"/>
  <path class="cls-2" d="M8.24,3.41c.52.19,1.05.34,1.55.56,1.18.52,2.41.64,3.68.8,2.14.27,4.21.88,6.08,2.03,1.76,1.08,3.28,2.43,4.47,4.1,1.16,1.65,2.09,3.43,2.41,5.48.22,1.37.28,1.38-.99,1.84-2.12.78-3.99,1.97-5.83,3.27-2.34,1.66-4.43,3.58-6.43,5.62-.18.19-.35.39-.51.61-.15.21-.28.44-.42.66l-.29-.13c-.13-.51-.37-1.02-.37-1.53-.02-1.58.02-3.16.08-4.74.03-.59.1-1.21.33-1.73.17-.39.6-.7.96-.99.55-.45,1.17-.81,1.7-1.29.72-.65.8-1.52.52-2.38-.34-1.04-1.09-1.72-2.19-1.75-.48-.02-1,.25-1.44.51-.57.34-1.08.79-1.6,1.2-.16.13-.4.31-.41.47-.04.85-.59.86-1.21.83-.31-.02-.62,0-.94,0-.83,0-1.64-.65-1.76-1.45-.04-.25.09-.56.23-.8,1.45-2.46,2.92-4.9,4.37-7.36.29-.48.2-.93-.21-1.36-.68-.72-1.31-1.49-1.95-2.24.05-.08.1-.15.15-.23Z"/>
</svg>