<?xml version="1.0" encoding="UTF-8"?>
<svg id="Layer_1" xmlns="http://www.w3.org/2000/svg" viewBox="0 0 32 32">
  <defs>
    <style>
      .cls-1 {
        fill: #fff;
      }

      .cls-2 {
        fill: #ef4136;
      }
    </style>
  </defs>
  <path class="cls-1" d="M14.8,31.17c-.3-.22-.58-.44-.85-.64l-.05-.04c-.58-.44-1.13-.86-1.68-1.25-1.44-1.03-2.92-2.1-4.67-2.57-.66-.18-1.1-.52-1.3-1.03-.2-.52-.11-1.07.28-1.69.27-.43.54-.86.8-1.29l.03-.04c.63-1.02,1.28-2.07,1.98-3.09.36-.53.67-.91.99-1.24l.38-.4-.26-.49c-.42-.8-.8-1.62-1.19-2.47l-.18-.38c-.16-.34-.13-.64-.12-.82,0-.03,0-.06,0-.08v-.81s-.08-.16-.08-.16c-.06-.11-.1-.23-.14-.34-.15-.47-.29-.95-.42-1.42-.18-.63-.36-1.22-.55-1.82-.08-.26-.12-.51-.12-.76v-.34s-.24-.23-.24-.23c-.19-.18-.31-.38-.38-.62-.18-.62-.02-1.5.6-1.91.75-.49,1.59-.99,2.63-1.56.15-.08.32-.13.51-.15l.33-.03.21-.26c.17-.21.36-.36.58-.45.76-.32,1.6-.61,2.49-.86.11-.03.22-.05.34-.05.18,0,.34.03.51.1l.3.12.3-.13c.24-.1.46-.15.69-.15.07,0,.13,0,.2.01.58.08,1.14.2,1.68.32,0,0,.3.07.43.09.3.06.56.16.78.3l.21.13.28-.02s.04,0,.07,0c.41,0,.74.19.95.32l.08.04c.72.39,1.36.74,2.01,1.12l.04.02.05.03c1.43.72,1.07,1.84.85,2.29-.11.22-.24.4-.38.55l-.23.23v.33s0,.06,0,.08v.6s.56.16.56.16c.53.15.82.36,1.02.74.29.56.13,1.05-.14,1.68v.03c-.47,1.09-.92,2.21-1.35,3.29-.26.66-.52,1.3-.79,1.95-.13.31-.26.61-.39.91v.02c-.12.24-.22.47-.32.71,0,.02-.02.04-.03.06l-.23.49.34.38c.5.56.88,1.17,1.19,1.66.54.86,1.03,1.75,1.5,2.6.21.39.43.78.65,1.16.28.5.33,1.02.14,1.49-.21.51-.64.85-1.29,1.03-2.09.59-3.8,1.88-5.6,3.26-.31.24-.63.48-.94.71-.25.18-.51.29-.69.37l-.54.23v1.33l-1.85-1.39Z"/>
  <g>
    <path class="cls-2" d="M16.47,29.38c0-3.14.06-6.29-.03-9.43-.04-1.38,1.06-1.83,2.18-1.81,1.96.04,2.93,1.41,3.83,2.84.76,1.21,1.41,2.48,2.12,3.72.3.53-.12.75-.46.84-2.69.75-4.75,2.54-6.92,4.16-.2.15-.45.23-.68.34-.08-.21-.17-.42-.25-.63.07,0,.14-.02.21-.03Z"/>
    <path class="cls-2" d="M15.49,30.24c-.97-.73-1.77-1.35-2.59-1.95-1.57-1.13-3.14-2.24-5.05-2.75-.61-.16-.68-.45-.34-.99.92-1.46,1.8-2.96,2.78-4.38.63-.91,1.34-1.79,2.52-2.14,1.25-.37,2.66.57,2.66,1.86,0,2.91.02,5.82.02,8.73,0,.47,0,.95,0,1.61Z"/>
    <path class="cls-2" d="M16.53,17.42c-.23-1.21.33-2.18.83-3.13.49-.93,1.14-1.76,2.13-2.26.44-.22.33-.62-.18-.87-.83-.41-1.68-.79-2.47-1.26-.75-.44-1.08-1.41-.76-2.18.06-.15.49-.29.68-.23,1.06.34,2.07.81,3.14,1.12,1.16.34,2.34.59,3.52.85.85.18.84.18.5.98-.73,1.74-1.42,3.5-2.13,5.25-.22.55-.48,1.08-.71,1.63-.17.41-.44.45-.81.27-.17-.08-.35-.14-.51-.23-.91-.49-1.81-.41-2.73,0-.14.06-.31.04-.52.05Z"/>
    <path class="cls-2" d="M10.13,13.63c.38,0,.69-.03,1,0,.6.07,1.04-.19,1.5-.54.22-.17.57-.2.86-.21.66-.02,1.3.17,1.9-.37.55-.49,1.08.06,1.72.15-1.07,1.51-1.61,3.08-1.72,4.91-.3-.14-.53-.23-.74-.35-.74-.43-1.47-.41-2.24-.05-.22.1-.72.08-.79-.05-.54-1-1-2.03-1.48-3.06-.05-.1,0-.24,0-.44Z"/>
    <path class="cls-2" d="M15.14,7.85c.05.89.11,1.77.17,2.66.06.96-.39,1.55-1.19,1.52-.56-.02-.96-.26-1.06-.86-.25-1.46-.51-2.91-.75-4.37-.13-.77.23-1.14,1.3-1.38.19-.04.38-.05.56-.11.96-.37,1.01-.34,1.02.67,0,.62,0,1.25,0,1.87h-.04Z"/>
    <path class="cls-2" d="M12.3,11.58c-.06.74-.4,1.14-.99,1.29-.6.15-1.25-.25-1.45-.87-.34-1.08-.63-2.18-.98-3.26-.16-.51-.03-.79.45-1.02.49-.23.96-.52,1.41-.83.45-.31.72-.23.81.29.27,1.5.51,3,.74,4.4Z"/>
    <path class="cls-2" d="M16.1,4.9c.83.14,1.63.25,2.4.43.48.11.56.73.27,1.49-.18.49-.52.3-.82.18-.44-.17-.89-.33-1.31-.52-.64-.29-.68-.42-.54-1.57Z"/>
    <path class="cls-2" d="M19.66,6.73c0-.19-.07-.43.02-.56.1-.14.4-.31.51-.25.66.32,1.31.67,1.91,1.09.19.13.35.5.31.72-.09.44-.44.68-.92.54-.48-.14-.99-.23-1.4-.48-.29-.18-.41-.62-.61-.94.06-.04.12-.07.18-.11Z"/>
    <path class="cls-2" d="M19.83,4.48c.13-.29.17-.57.3-.64.12-.06.36.12.53.21.66.36,1.33.72,1.98,1.1.31.18.76.27.48.83-.26.54-.6.41-.98.18-.61-.36-1.23-.7-1.83-1.09-.21-.14-.34-.39-.5-.6Z"/>
    <path class="cls-2" d="M8.68,7.23c-.21-.15-.47-.24-.51-.39-.05-.19,0-.55.12-.63.83-.54,1.69-1.04,2.56-1.52.09-.05.43.11.44.18,0,.25,0,.62-.15.74-.51.41-1.1.74-1.65,1.11-.25.16-.51.32-.81.52Z"/>
    <path class="cls-2" d="M18.82,4.55c-.96-.18-1.75-.28-2.49-.51-.2-.06-.27-.53-.4-.81.22-.08.45-.26.66-.23.68.09,1.35.25,2.03.4.38.08.73.25.62.71-.05.21-.32.36-.41.45Z"/>
    <path class="cls-2" d="M15.45,3.5c-.34.34-.49.6-.7.68-.7.27-1.42.52-2.15.7-.16.04-.55-.22-.55-.36-.01-.23.14-.59.33-.67.76-.32,1.55-.59,2.34-.81.15-.04.39.23.74.46Z"/>
    <path class="cls-2" d="M16.13,10.53c.44.25.85.47,1.24.73.09.06.14.25.12.36-.01.07-.18.16-.28.17-.55.08-1.15-.57-1.08-1.26Z"/>
  </g>
</svg>