<?xml version="1.0" encoding="UTF-8"?>
<svg id="Layer_1" xmlns="http://www.w3.org/2000/svg" viewBox="0 0 32 32">
  <defs>
    <style>
      .cls-1 {
        fill: #fff;
      }

      .cls-2 {
        fill: #ef4136;
      }
    </style>
  </defs>
  <path class="cls-1" d="M16.54,23.95l-1.25.39c-.28.09-.53.13-.79.13-.84,0-1.54-.43-2.13-1.32-.38-.57-.79-.8-1.42-.8-.14,0-.3.01-.46.04l-.19.03c-.78.11-1.51.21-2.23.38-.34.08-.75.16-1.18.16-.73,0-1.39-.24-1.96-.7-1.13-.93-2.1-2.12-3.04-3.74-.13-.22-.2-.47-.23-.75-.02-.28.05-.49.09-.61v-.04s.31-1.06.31-1.06h.06s.18-.71.18-.71c.1-.39.3-.7.44-.91.52-.81.96-1.67,1.32-2.4.24-.49.54-.81.9-.98l.39-.18.06-.42c.03-.26.12-.49.25-.68.67-.94,1.41-1.91,2.32-3.06.25-.31.55-.51.88-.6l.41-.1.13-.4c.03-.09.07-.17.11-.25.26-.47.77-.78,1.39-.84,1.38-.13,2.55-.8,3.95-1.65.39-.24.76-.35,1.14-.35.49,0,.88.19,1.19.38,1.27.75,2.46,1.46,3.83,1.61.76.08,1.14.47,1.34.79.06.09.1.19.14.29l.15.41.43.09c.35.07.67.27.92.58.85,1.03,1.66,2.07,2.27,2.87.23.3.36.62.4.96l.05.42.38.18c.34.16.62.47.84.9.39.78.86,1.67,1.4,2.45.22.31.36.62.41.91l.15.77,1.1-.23-.32,1.7v.03s0,.06-.01.1c-.02.31-.06.75-.38,1.14-.69.86-1.4,1.7-2.09,2.51l-.57.67c-.52.62-1.25.96-2.04.96-.38,0-.78-.08-1.17-.23-.68-.27-1.43-.39-2.37-.39-.3,0-.62.01-1.01.04h-.22s-.18.14-.18.14c-.05.04-.13.09-.23.18-.24.2-.47.42-.72.66-.23.22-.47.46-.73.68-.32.27-.67.35-.9.41l-.1.02-.83.27-.57-.83ZM16.24,18.12c-.52,0-1.03.16-1.3.4-.64.58-.93,1.17-.88,1.75.06.61.52,1.24,1.22,1.68.13.08.25.18.35.3l.57.65.58-.65c.1-.11.24-.26.42-.39.7-.5,1.08-1.17,1.06-1.85-.03-.67-.44-1.28-1.17-1.71h-.02s-.02-.03-.02-.03c-.19-.1-.5-.15-.81-.15Z"/>
  <path class="cls-2" d="M22.11,18.9c2.43-.5,4.86-1,7.42-1.53-.05.27-.02.59-.16.77-.86,1.07-1.76,2.11-2.64,3.16-.53.63-1.26.65-1.91.4-1.34-.53-2.72-.52-4.11-.41-.37.03-.75.31-1.05.56-.52.42-.97.93-1.48,1.36-.15.13-.41.15-.62.22-.04-.06-.08-.12-.12-.17.14-.15.27-.32.43-.44,2.12-1.51,2.05-4.15-.19-5.49-.9-.54-2.63-.47-3.53.36-2.16,1.97-1.24,4.18.52,5.26.1.06.17.19.26.3-.58.18-1.08.08-1.62-.74-.76-1.14-1.76-1.44-3.01-1.27-.84.12-1.69.23-2.52.42-.77.18-1.46.25-2.15-.31-1.17-.96-2.03-2.14-2.77-3.43-.05-.08-.07-.18-.07-.27,0-.06.03-.13.07-.26,2.34.49,4.67.98,7.03,1.48.15-.57.03-.82-.4-.95-1.82-.54-3.63-1.08-5.44-1.66-.82-.26-.82-.5-.36-1.22.51-.8.96-1.65,1.38-2.51.26-.53.45-.6.94-.2,1.73,1.4,3.5,2.75,5.28,4.08.18.14.54.04.82.05-.12-.23-.18-.51-.36-.67-1.69-1.56-3.41-3.08-5.1-4.65-.14-.13-.19-.56-.08-.7.73-1.02,1.5-2.02,2.28-3,.26-.32.49-.25.7.14,1.19,2.29,2.4,4.58,3.63,6.86.13.24.47.35.72.52.07-.06.15-.12.22-.17-.12-.34-.23-.69-.37-1.02-.69-1.58-1.38-3.16-2.07-4.74-.36-.83-.69-1.67-1.1-2.48-.27-.54-.06-.82.42-.87,1.67-.16,3.06-.97,4.44-1.81.45-.27.7-.23,1.14.03,1.34.79,2.69,1.59,4.3,1.77.55.06.64.42.46.89-.39,1.04-.75,2.09-1.18,3.11-.51,1.23-1.08,2.43-1.64,3.64-.16.34-.38.66-.5,1.02-.05.15.09.35.14.54.2-.09.52-.11.6-.27,1.24-2.34,2.46-4.7,3.67-7.06.19-.36.44-.39.67-.11.77.93,1.51,1.88,2.25,2.84.28.36.19.73-.13,1.02-1.63,1.48-3.27,2.96-4.91,4.43-.24.21-.7.35-.38.74.09.11.63.02.85-.14,1.77-1.3,3.51-2.64,5.25-3.98.42-.32.62-.28.86.2.45.89.92,1.78,1.49,2.59.38.55.28.82-.26,1.03-.93.35-1.87.7-2.82,1-.95.3-1.92.51-2.86.82-.22.07-.35.39-.53.6.07.11.14.23.21.34Z"/>
</svg>