<?xml version="1.0" encoding="UTF-8"?>
<svg id="Layer_1" xmlns="http://www.w3.org/2000/svg" viewBox="0 0 32 32">
  <defs>
    <style>
      .cls-1 {
        fill: #fff;
      }

      .cls-2 {
        fill: #ef4136;
      }
    </style>
  </defs>
  <path class="cls-1" d="M16.73,29.29c-.14,0-.65-.03-1.07-.44l-.51-.51-.54.48c-.31.28-.73.45-1.12.45-.13,0-.26-.02-.39-.06-.82-.25-1.68-.53-2.51-.92-.68-.32-1.03-1.06-1.17-1.47-.21-.61-.4-1.23-.58-1.82-.14-.47-.28-.91-.43-1.36-.24-.74-.5-1.49-.73-2.16-.22-.64-.44-1.27-.65-1.91-.09-.27-.1-.51-.1-.75,0-.1,0-.2-.01-.32l-.18-2.67,1.57,1.29-.99-2.76c-.06-.16-.12-.32-.17-.49-.12-.33-.09-.64-.08-.81v-.06s0-2.27,0-2.27l1.59,1.15-.85-2.36c-.07-.19-.15-.39-.23-.6-.11-.27-.22-.54-.32-.83-.11-.31-.1-.58-.1-.77,0-.04,0-.06,0-.09l-.04-.74.62-.34,1.2-.68.62.72c.13.15.27.31.4.46.32.36.63.71.92,1.1l.9,1.19.45-1.42c.53-1.67,1.06-3.27,1.46-4.48.11-.32.57-1.15,1.41-1.15h.17l.17.05c.45.13,1.01.49,1.21,1.09.33.97.66,1.96.97,2.92.16.48.31.94.46,1.4l.5,1.51.89-1.11c.23-.29.47-.51.63-.65.22-.2.44-.4.66-.59l.86-.77,1.64.77-.08.83s0,.09,0,.09c0,.2-.01.46-.12.75l-.14.39c-.29.81-.58,1.64-.87,2.47l-.25.71,1.53.59-.1.89c0,.06-.01.11-.01.17v.03c-.02.22-.04.52-.14.83-.12.37-.25.74-.37,1.11l-.68,2.01,1.91-.89-.51,2.29c-.04.18-.07.34-.1.5v.02c-.07.35-.14.65-.24.97-.21.66-.44,1.32-.67,1.95-.48,1.37-.94,2.65-1.23,3.98-.39,1.79-1.68,2.23-2.54,2.52-.22.08-.43.15-.6.23-.18.09-.33.13-.44.15l-.08.02-.08.03c-.23.1-.47.16-.7.16Z"/>
  <g>
    <path class="cls-2" d="M22.28,18.5c-.13.58-.19.99-.32,1.39-.65,2.01-1.47,3.99-1.93,6.04-.34,1.53-1.56,1.49-2.53,1.97-.14.07-.33.06-.47.14-.42.24-.63.01-.76-.34-.22-.57-.47-1.14-.59-1.73-.07-.36,0-.81.15-1.14.23-.49.53-1.01.94-1.33.52-.39,1.17-.73,1.81-.84,1.4-.24,1.71-1.21,2.03-2.36.2-.71.72-1.36,1.65-1.8Z"/>
    <path class="cls-2" d="M8.06,18.42c.82.67,1.42,1.24,1.69,2.1.12.38.26.76.41,1.13.18.44.47.66.98.79.82.22,1.65.56,2.35,1.03.48.33.78.95,1.09,1.48.13.22.17.57.1.82-.2.7-.45,1.39-.73,2.07-.06.14-.36.31-.49.27-.8-.25-1.61-.51-2.37-.87-.26-.12-.46-.5-.57-.81-.36-1.04-.66-2.11-1-3.16-.45-1.36-.93-2.71-1.39-4.08-.06-.17-.03-.37-.06-.78Z"/>
    <path class="cls-2" d="M15.12,12.73c-.79-1.04-1.57-1.97-2.2-2.99-.17-.28.07-.85.2-1.26.53-1.7,1.09-3.4,1.66-5.09.05-.15.25-.38.32-.36.17.05.39.2.44.36.59,1.72,1.14,3.44,1.71,5.16.29.87.11,1.57-.54,2.24-.55.56-1,1.21-1.6,1.94Z"/>
    <path class="cls-2" d="M8.66,6.94c.47.54.97,1.06,1.39,1.64.22.31.34.72.4,1.1.18,1.21,1.1,1.58,2.07,1.96.38.15.74.38,1.04.66.33.31.57.7.83,1.07.3.43.46.88.12,1.4-.17.26-.28.55-.39.84-.43,1.08-.38.91-1.51.62-1.44-.36-1.8-1.35-2.15-2.56-.43-1.52-1.02-3-1.56-4.49-.17-.49-.39-.96-.56-1.45-.06-.17-.03-.38-.04-.57.12-.07.24-.14.37-.21Z"/>
    <path class="cls-2" d="M22.02,7.18c-.02.2,0,.41-.06.59-.83,2.38-1.67,4.76-2.54,7.13-.13.35-.4.73-.72.9-.52.3-1.12.5-1.71.63-.19.04-.55-.2-.67-.41-.23-.41-.28-.92-.52-1.31-.31-.51-.15-.9.14-1.32.22-.31.46-.61.66-.93.41-.67,1.08-.91,1.77-1.05,1.04-.23,1.39-1.05,1.52-1.89.11-.73.5-1.15.98-1.58.31-.29.63-.57.95-.85.07.03.14.07.21.1Z"/>
    <path class="cls-2" d="M8.22,13c.86.63,1.61,1.21,1.76,2.25.17,1.25,1.09,1.79,2.19,1.93,1.48.19,1.85,1.43,2.51,2.4.08.12,0,.37-.06.55-.09.27-.23.52-.34.79-.59,1.39-.57,1.34-1.98.89-1.03-.33-1.58-.85-1.89-1.98-.58-2.15-1.44-4.23-2.18-6.34-.05-.15,0-.33,0-.5Z"/>
    <path class="cls-2" d="M22.06,13.06c-.03.27-.02.55-.1.8-.7,2.12-1.44,4.23-2.11,6.36-.33,1.06-1.19,1.36-2.07,1.66-.22.08-.45.13-.67.19-.41.1-.71,0-.82-.44-.02-.09,0-.21-.05-.28-1.04-1.3-.43-2.39.48-3.38.31-.34.81-.54,1.26-.74.47-.2,1-.28,1.47-.49.68-.3.76-1.02.89-1.61.22-.96.92-1.51,1.5-2.16.08.03.15.06.23.09Z"/>
  </g>
</svg>