<?xml version="1.0" encoding="UTF-8"?>
<svg id="Layer_1" xmlns="http://www.w3.org/2000/svg" viewBox="0 0 32 32">
  <defs>
    <style>
      .cls-1 {
        fill: #fff;
      }

      .cls-2 {
        fill: #ef4136;
      }
    </style>
  </defs>
  <path class="cls-1" d="M18.3,24.06l-1.19,1.26c-.58.62-.96.91-1.52.91-.61,0-.98-.36-1.47-.91l-1.28-1.44v1.82c0,.18,0,.35,0,.53v.61l-1.57.86-.51-.85s-.09-.13-.14-.2c-.2-.28-.46-.62-.52-1.1-.2-1.53-.39-3.13-.59-5.03l-.07-.65-.65.03c-1.14.06-2.14.09-3.04.09h-.15c-.58,0-1.25-.32-1.68-.8-.54-.6-1.03-1.23-1.51-1.85-.13-.16-.25-.32-.38-.48-.15-.19-.22-.37-.28-.52-.02-.06-.04-.1-.06-.15l-.75-1.67,1.82.22c2,.25,3.97.6,5.88.94h.02c.51.09,1.01.18,1.5.27l2,.35-1.38-1.49c-.57-.62-1.14-1.24-1.7-1.85,0,0-.84-.91-1.21-1.31-.17-.18-.32-.35-.47-.53-.06-.08-.13-.15-.19-.23v-.02c-.48-.54-1.27-1.44-.73-2.9.2-.55.28-1.19.36-1.93.04-.36.09-.74.15-1.13l.35-2.19,1.45,1.67s.08.09.12.13l.02.02c.14.15.31.33.45.57,1.85,3.16,3.72,6.38,5.53,9.49l.71,1.23.6-1.01c.93-1.58,1.75-2.99,2.52-4.32.64-1.12,1.27-2.25,1.88-3.35v-.02c.41-.72.81-1.44,1.22-2.15.11-.19.24-.35.36-.48.05-.06.1-.12.16-.19l.97-1.21.75,1.39s.04.05.05.08v.02c.15.21.45.63.29,1.18-.14.48.02.98.21,1.61.1.32.21.67.28,1.04.07.35.24,1.27-.53,2.14-.46.52-.91,1.04-1.36,1.56-.78.89-1.58,1.81-2.4,2.72l-1.33,1.47,1.95-.34c.8-.14,1.63-.28,2.53-.44.73-.13,1.47-.27,2.19-.41.62-.12,1.24-.24,1.87-.35.1-.02.19-.03.3-.03.14,0,.27.02.39.03h.02c.07.01.16.02.26.03l2.09.16-1.4,1.56c-.15.17-.3.33-.43.48-.29.32-.54.59-.77.87l-.1.12c-.24.28-.46.54-.61.8-.49.83-1.18,1.26-2.06,1.26-.06,0-.13,0-.2,0-.64-.04-1.31-.07-1.95-.1h-.04c-.29-.01-.59-.03-.89-.04l-.67-.03-.08,1.14c-.08,1.12-.17,2.29-.33,3.44-.01.08-.02.16-.03.25v.02c-.07.71-.19,1.9-1.56,2.58l-1.49.74v-3.94ZM15.43,18.89c-.17.04-.36.08-.56.14l-.8.21,1.71,3.55.61-1.32c.19-.42.39-.88.61-1.44l.29-.74-.77-.18-.27-.06c-.16-.04-.3-.09-.43-.13l-.21-.07-.19.04Z"/>
  <path class="cls-2" d="M19.17,21.11c-.81,1.04-1.54,2.14-2.43,3.1-1.27,1.37-1.07,1.23-2.16.05-.81-.87-1.46-1.89-2.18-2.85-.1-.13-.19-.26-.28-.39-.06,0-.12.02-.19.03-.03.85-.08,1.7-.1,2.55-.02.87,0,1.74,0,2.6l-.17.09c-.18-.3-.48-.59-.52-.91-.26-1.92-.47-3.85-.66-5.77-.07-.73-.22-.86-.95-.81-1.3.08-2.61.14-3.91.13-.31,0-.7-.21-.92-.45-.65-.73-1.24-1.51-1.85-2.28-.08-.1-.12-.25-.21-.46,4.13.51,8.1,1.47,12.14,1.92.03-.08.06-.16.08-.24-.57-.53-1.16-1.03-1.69-1.6-1.52-1.62-3.02-3.27-4.53-4.9-.15-.16-.29-.32-.42-.48-.5-.62-1.14-1.09-.76-2.14.36-.97.37-2.08.56-3.26.17.2.36.36.48.56,2.11,3.62,4.22,7.24,6.32,10.86.02.04.03.08.05.12.77,1.21.78,1.22,1.52-.02,1.1-1.85,2.19-3.7,3.25-5.57,1.05-1.84,2.07-3.69,3.1-5.53.09-.16.23-.3.42-.54.12.22.3.4.27.52-.32,1.12.27,2.1.47,3.13.1.54.04.9-.29,1.27-1.59,1.8-3.14,3.62-4.77,5.38-.74.79-1.62,1.45-2.61,2.33.51.03.86.12,1.2.07,2.18-.35,4.36-.73,6.54-1.11,1.36-.24,2.7-.51,4.06-.76.17-.03.36.02.71.05-.48.54-.87.95-1.23,1.38-.29.34-.59.68-.81,1.06-.3.52-.67.78-1.29.74-1.24-.09-2.48-.11-3.72-.19-.62-.04-.86.13-.91.76-.13,1.57-.2,3.15-.42,4.71-.1.7-.02,1.57-1.03,2.07v-5.26l-.17.04ZM15.48,24.68c.08-.05.16-.1.23-.14.08-.11.17-.21.25-.32,1.12-1.47,1.76-3.17,2.39-4.88.23-.64.09-.87-.58-1-.43-.08-.86-.19-1.29-.29-.33-.08-.67-.28-.98-.23-.79.14-1.55.4-2.32.62-.35.1-.51.31-.33.67.83,1.72,1.66,3.43,2.48,5.15.06.13.1.28.15.42Z"/>
</svg>