<?xml version="1.0" encoding="UTF-8"?>
<svg id="Layer_1" xmlns="http://www.w3.org/2000/svg" viewBox="0 0 32 32">
  <defs>
    <style>
      .cls-1 {
        fill: #231f20;
      }

      .cls-2 {
        fill: #465928;
      }

      .cls-3 {
        fill: #c2db79;
      }
    </style>
  </defs>
  <circle class="cls-1" cx="16.2" cy="14.19" r="11.53"/>
  <path class="cls-2" d="M16.2,26.38c-6.72,0-12.19-5.47-12.19-12.19S9.48,2,16.2,2s12.19,5.47,12.19,12.19-5.47,12.19-12.19,12.19ZM16.2,3.32c-5.99,0-10.87,4.88-10.87,10.87s4.88,10.87,10.87,10.87,10.87-4.88,10.87-10.87S22.2,3.32,16.2,3.32Z"/>
  <path class="cls-2" d="M30.02,14.85c-.35,7.32-6.41,13.18-13.82,13.18S2.73,22.17,2.38,14.85H.41c.35,8.41,7.3,15.15,15.8,15.15s15.45-6.74,15.8-15.15h-1.98Z"/>
  <g>
    <path class="cls-3" d="M9.61,7.74c.19.23.44.44.56.7.26.52.57.95,1.11,1.22.17.09.2.42.32.62.14.24.29.48.46.7.24.32.49.63.74.93.14.17.32.31.46.49.2.24.36.5.57.73.37.42.76.83,1.14,1.25.56.64.6,1.39.1,2.06-.15.21-.35.43-.07.59.19.11.52.1.72,0,.19-.09.33-.34.42-.55.31-.75.62-.88,1.43-.81.77.06,1.59.09,2.32-.11.45-.12.78-.69,1.17-1.06.07-.07.12-.17.2-.24.44-.4.65-.36.92.18.24.48.4,1.02.73,1.43.5.62,1,1.26,1.8,1.59.21.09.35.35.52.53v.82c-.21.41-.57.46-.99.46-3.93.01-7.86.03-11.79.05-.57,0-1.15.04-1.72.01-.37-.02-.62-.21-.58-.65.04-.41.3-.49.65-.52,1.14-.11,2.31-.11,3.38-.64.41-.2.44-.35.08-.65-.04-.04-.08-.09-.12-.13-.46-.6-.92-1.2-1.39-1.79-.81-1.01-1.62-2.03-2.46-3.02-.67-.8-1.36-1.58-2.08-2.34-.53-.56-.64-1.18.14-1.57.28-.13.59-.19.88-.29.12,0,.24,0,.36,0Z"/>
    <path class="cls-3" d="M20.05,13.77c-.08.68-.34.92-1.06.94-.56.01-1.11-.02-1.67.02-.53.04-.96-.15-1.29-.52-.38-.43-.7-.92-1.06-1.37-.55-.68-1.13-1.34-1.67-2.03-.44-.55-.91-1.05-1.5-1.45-.29-.2-.05-1.05.34-1.16,1.02-.29,1.14-.55,1.99.4.6.67,1.16,1.37,1.73,2.06.44.53.9.97,1.69.73.54-.17.93.04,1.23.55.23.4.6.71.87,1.09.17.23.27.5.4.76Z"/>
  </g>
</svg>