<?xml version="1.0" encoding="UTF-8"?>
<svg id="Layer_1" xmlns="http://www.w3.org/2000/svg" viewBox="0 0 32 32">
  <defs>
    <style>
      .cls-1 {
        fill: #231f20;
      }

      .cls-2 {
        fill: #fff;
      }

      .cls-3 {
        fill: #465928;
      }

      .cls-4 {
        fill: #c2db79;
      }
    </style>
  </defs>
  <circle class="cls-1" cx="16.1" cy="14.09" r="11.53"/>
  <path class="cls-3" d="M16.1,26.28c-6.72,0-12.19-5.47-12.19-12.19S9.38,1.9,16.1,1.9s12.19,5.47,12.19,12.19-5.47,12.19-12.19,12.19ZM16.1,3.21c-5.99,0-10.87,4.88-10.87,10.87s4.88,10.87,10.87,10.87,10.87-4.88,10.87-10.87S22.1,3.21,16.1,3.21Z"/>
  <path class="cls-3" d="M29.92,14.75c-.35,7.32-6.41,13.18-13.82,13.18S2.63,22.07,2.28,14.75H.31c.35,8.41,7.3,15.15,15.8,15.15s15.45-6.74,15.8-15.15h-1.98Z"/>
  <g>
    <path class="cls-4" d="M9.51,7.64c.19.23.44.44.56.7.26.52.57.95,1.11,1.22.17.09.2.42.32.62.14.24.29.48.46.7.24.32.49.63.74.93.14.17.32.31.46.49.2.24.36.5.57.73.37.42.76.83,1.14,1.25.56.64.6,1.39.1,2.06-.15.21-.35.43-.07.59.19.11.52.1.72,0,.19-.09.33-.34.42-.55.31-.75.62-.88,1.43-.81.77.06,1.59.09,2.32-.11.45-.12.78-.69,1.17-1.06.07-.07.12-.17.2-.24.44-.4.65-.36.92.18.24.48.4,1.02.73,1.43.5.62,1,1.26,1.8,1.59.21.09.35.35.52.53v.82c-.21.41-.57.46-.99.46-3.93.01-7.86.03-11.79.05-.57,0-1.15.04-1.72.01-.37-.02-.62-.21-.58-.65.04-.41.3-.49.65-.52,1.14-.11,2.31-.11,3.38-.64.41-.2.44-.35.08-.65-.04-.04-.08-.09-.12-.13-.46-.6-.92-1.2-1.39-1.79-.81-1.01-1.62-2.03-2.46-3.02-.67-.8-1.36-1.58-2.08-2.34-.53-.56-.64-1.18.14-1.57.28-.13.59-.19.88-.29.12,0,.24,0,.36,0Z"/>
    <path class="cls-4" d="M19.95,13.67c-.08.68-.34.92-1.06.94-.56.01-1.11-.02-1.67.02-.53.04-.96-.15-1.29-.52-.38-.43-.7-.92-1.06-1.37-.55-.68-1.13-1.34-1.67-2.03-.44-.55-.91-1.05-1.5-1.45-.29-.2-.05-1.05.34-1.16,1.02-.29,1.14-.55,1.99.4.6.67,1.16,1.37,1.73,2.06.44.53.9.97,1.69.73.54-.17.93.04,1.23.55.23.4.6.71.87,1.09.17.23.27.5.4.76Z"/>
  </g>
  <g>
    <g>
      <polygon class="cls-1" points="20.89 30.66 19.97 28.63 19.1 30.66 14.88 30.66 17.71 25.95 15.15 21.25 19.4 21.25 20.1 23.17 20.93 21.25 24.94 21.25 22.29 25.92 25.06 30.66 20.89 30.66"/>
      <path class="cls-2" d="M24.08,21.75l-2.36,4.17,2.47,4.24h-2.98l-1.04-2.3c-.07-.14-.11-.29-.13-.42-.02-.14-.04-.25-.05-.34h-.02c-.02.09-.05.22-.08.37s-.08.3-.13.45l-.97,2.26h-3.01l2.52-4.19-2.29-4.21h3.06l.81,2.22c.07.21.14.48.21.82h.02c.06-.38.13-.66.22-.83l.95-2.21h2.82M25.79,20.75h-5.19l-.26.61-.2.46-.15-.41-.24-.66h-5.44l.8,1.48,2.02,3.71-2.22,3.7-.91,1.52h5.44l.26-.6.29-.68.32.7.27.59h5.36l-.88-1.5-2.18-3.74,2.08-3.67.85-1.49h0Z"/>
    </g>
    <g>
      <path class="cls-1" d="M24.22,30.66v-1.17c0-.53.07-1,.2-1.4.14-.41.35-.79.64-1.15.28-.34.74-.76,1.4-1.27.53-.42.74-.61.83-.71.11-.12.19-.23.24-.33.04-.07.06-.15.06-.25,0-.17,0-.34-.51-.34-.57,0-1.1.21-1.62.63l-.82.66v-3.4l.27-.14c.5-.25.97-.43,1.42-.53.44-.1.9-.15,1.36-.15,1.03,0,1.86.26,2.45.78.61.53.92,1.28.92,2.22,0,.7-.16,1.3-.47,1.8-.3.49-.83.97-1.61,1.48-.15.1-.29.19-.4.26h2.56v3h-6.92Z"/>
      <path class="cls-2" d="M27.69,21.61c.91,0,1.62.22,2.12.66s.75,1.05.75,1.84c0,.61-.13,1.12-.39,1.54-.26.42-.75.86-1.46,1.32-.54.35-.9.61-1.08.77s-.27.3-.27.41h3.28v2h-5.92v-.67c0-.48.06-.89.18-1.24s.3-.68.55-.99c.25-.31.69-.71,1.32-1.19.45-.35.74-.6.89-.76.15-.15.26-.3.33-.45s.11-.3.11-.47c0-.56-.34-.84-1.01-.84s-1.33.25-1.94.74v-2.04c.46-.23.9-.4,1.3-.49s.82-.14,1.25-.14M27.69,20.61c-.5,0-.99.06-1.47.17-.48.11-.99.3-1.53.57l-.55.28v4.76l1.63-1.33c.4-.32.8-.49,1.21-.52-.02.02-.04.04-.06.06-.05.05-.23.23-.78.66-.68.53-1.17.97-1.47,1.34-.33.4-.57.84-.73,1.31-.15.45-.23.98-.23,1.56v1.67h7.92v-4h-1.49c.38-.32.67-.64.87-.97.36-.58.54-1.28.54-2.07,0-1.07-.38-1.97-1.09-2.59-.69-.6-1.62-.9-2.78-.9h0Z"/>
    </g>
  </g>
</svg>