<?xml version="1.0" encoding="UTF-8"?>
<svg id="Layer_1" xmlns="http://www.w3.org/2000/svg" viewBox="0 0 32 32">
  <defs>
    <style>
      .cls-1 {
        fill: #c6ab78;
      }

      .cls-2 {
        fill: #c6dd9f;
      }

      .cls-3 {
        fill: #00a14b;
      }
    </style>
  </defs>
  <g>
    <polygon class="cls-2" points="8.87 28.66 1.73 16.3 8.87 3.94 23.13 3.94 30.27 16.3 23.13 28.66 8.87 28.66"/>
    <path class="cls-3" d="M22.27,5.44l6.27,10.86-6.27,10.86h-12.54l-6.27-10.86,6.27-10.86h12.54M24,2.44H8L0,16.3l8,13.86h16l8-13.86L24,2.44h0Z"/>
  </g>
  <g>
    <g>
      <path d="M12.8,22.32c-.75-.1-1.5-.21-2.25-.29-.64-.07-1.28-.06-1.92-.15-.18-.03-.44-.3-.47-.48-.18-1.23-.31-2.46-.46-3.7,0-.07-.02-.14-.06-.2-.29-.51-.1-.78.44-.86.55-.08.32-.5.37-.81.05-.29.15-.57.15-.86,0-.52.33-.43.66-.41.07,0,.19-.12.19-.19,0-.1-.06-.22-.12-.31-.33-.45-.69-.89-1.01-1.35-.06-.09-.04-.25-.03-.38.03-.42.06-.83.13-1.24.01-.09.2-.15.25-.25.36-.66.71-1.32,1.05-1.98.01-.03-.07-.11-.1-.15.36-.05.78-.08,1.2-.16.8-.16,1.68-.66,2.36-.45,1.07.33,1.98,0,2.97-.04.62-.03,1.25.24,1.87.37.26.06.54.07.77.17.24.1.43.31.66.43.09.05.25-.02.36.02.07.02.1.17.17.2.52.22,1.05.43,1.58.64.37.15.76.25,1.1.44.18.1.22.43.39.55.23.17.54.24.7.31.05.14.06.23.11.27.97.85,1.04,2.06.16,3.05-.21.23-.45.44-.65.67-.07.08-.11.25-.07.34.15.35.34.68.51,1,0-.05.02-.17.03-.28l.12.03c-.06.18-.15.35-.17.53-.02.13.04.27.08.41.36,1.39.74,2.78,1.09,4.17.09.38,0,.59-.5.5-.93-.17-1.87-.32-2.81-.37-.36-.02-.74.28-1.1.45-.22.1-.43.22-.65.32h-7.11ZM12.92,17.14s-.09-.02-.14-.03c.08-.19.11-.5.24-.56.26-.11.58-.09.87-.12-.01.22-.03.43-.03.65,0,.1,0,.2,0,.3.09.98.2,1.96.28,2.94.04.54-.07,1.02.85.93,1.2-.11,2.42.08,3.63.12.41.01.91.11,1.2-.08,1.08-.72,2.23-.66,3.42-.51.14.02.39.01.43-.06.06-.14.04-.34,0-.51-.14-.65-.28-1.3-.47-1.94-.2-.64-.44-1.27-.7-1.88-.1-.25-.3-.46-.49-.66-.15-.16-.43-.45-.51-.4-.38.21-.73.48-1.05.77-.38.36-.79.39-1.19.13-.71-.46-1.39-.98-2.1-1.45-.13-.08-.35-.13-.48-.08-.59.24-1.15.53-1.73.78-.55.24-1.07.29-1.58-.17-.44-.39-.85-.8-1.59-.71-.51.06-.84.15-1.06.61-.03.07-.16.13-.25.15-1.08.25-1.13.33-.88,1.4.09.37.04.61-.42.69-.73.13-.78.29-.37.89.04.06.06.15.07.23.06.66.11,1.32.19,1.97.02.13.18.29.31.33.25.07.54.13.77.07.18-.05.43-.32.41-.46-.09-.59-.29-1.17-.42-1.76-.02-.09.09-.3.18-.32.95-.22.95-.21,1.01.76,0,.14.04.28.06.42.05.42-.02.94.2,1.24.2.27.72.33,1.12.39.13.02.44-.25.43-.38-.05-1.24-.14-2.47-.23-3.7ZM9.22,12.32c.08.31.06.58.19.67.62.49,1.28.93,2.14.7.92-.25,1.69-.03,2.29.74.07.09.25.19.35.16.45-.11.88-.27,1.32-.39.6-.17,1.28-.56,1.8-.41.71.2,1.27.87,1.95,1.25.25.14.79.17.94,0,.49-.52,1-.58,1.63-.41.87.24,2.06-.83,1.95-1.72,0-.06-.02-.14-.06-.17-.89-.69-1.72-1.47-2.68-2.04-.93-.55-1.98-.89-2.99-1.29-.69-.27-1.35-.56-2.17-.36-.79.19-1.64.73-2.44-.03-.04-.04-.16-.03-.23-.01-.74.15-1.47.35-2.22.43-.68.07-1.03.39-1.16,1.02-.03.15-.03.3-.08.44-.17.5-.36.99-.51,1.42Z"/>
      <path d="M19.84,14.12c-.58-.57-1.19-.97-1.44-1.53-.11-.24.5-.84.85-1.21.07-.07.47.14.69.27.36.22.74.43,1.02.73.15.16.26.61.16.73-.32.35-.74.61-1.28,1.02Z"/>
    </g>
    <path class="cls-1" d="M11.55,13.69c.92-.25,1.69-.03,2.29.74.07.09.25.19.35.16.45-.11.88-.27,1.32-.39.6-.17,1.28-.56,1.8-.41.71.2,1.27.87,1.95,1.25.25.14.79.17.94,0,.49-.52,1-.58,1.63-.41.87.24,2.06-.83,1.95-1.72,0-.06-.02-.14-.06-.17-.89-.69-1.72-1.47-2.68-2.04-.93-.55-1.98-.89-2.99-1.29-.69-.27-1.35-.56-2.17-.36-.79.19-1.64.73-2.44-.03-.04-.04-.16-.03-.23-.01-.74.15-1.47.35-2.22.43-.68.07-1.03.39-1.16,1.02-.03.15-.03.3-.08.44-.17.5-.36.99-.51,1.42.08.31.06.58.19.67.62.49,1.28.93,2.14.7ZM19.25,11.38c.07-.07.47.14.69.27.36.22.74.43,1.02.73.15.16.26.61.16.73-.32.35-.74.61-1.28,1.02-.58-.57-1.19-.97-1.44-1.53-.11-.24.5-.84.85-1.21Z"/>
    <path class="cls-1" d="M23.2,18.28c-.2-.64-.44-1.27-.7-1.88-.1-.25-.3-.46-.49-.66-.15-.16-.43-.45-.51-.4-.38.21-.73.48-1.05.77-.38.36-.79.39-1.19.13-.71-.46-1.39-.98-2.1-1.45-.13-.08-.35-.13-.48-.08-.59.24-1.15.53-1.73.78-.55.24-1.07.29-1.58-.17-.44-.39-.85-.8-1.59-.71-.51.06-.84.15-1.06.61-.03.07-.16.13-.25.15-1.08.25-1.13.33-.88,1.4.09.37.04.61-.42.69-.73.13-.78.29-.37.89.04.06.06.15.07.23.06.66.11,1.32.19,1.97.02.13.18.29.31.33.25.07.54.13.77.07.18-.05.43-.32.41-.46-.09-.59-.29-1.17-.42-1.76-.02-.09.09-.3.18-.32.95-.22.95-.21,1.01.76,0,.14.04.28.06.42.05.42-.02.94.2,1.24.2.27.72.33,1.12.39.13.02.44-.25.43-.38-.05-1.24-.14-2.47-.23-3.7-.05,0-.09-.02-.14-.03.08-.19.11-.5.24-.56.26-.11.58-.09.87-.12-.01.22-.03.43-.03.65,0,.1,0,.2,0,.3.09.98.2,1.96.28,2.94.04.54-.07,1.02.85.93,1.2-.11,2.42.08,3.63.12.41.01.91.11,1.2-.08,1.08-.72,2.23-.66,3.42-.51.14.02.39.01.43-.06.06-.14.04-.34,0-.51-.14-.65-.28-1.3-.47-1.94Z"/>
  </g>
</svg>