<?xml version="1.0" encoding="UTF-8"?>
<svg id="Layer_1" xmlns="http://www.w3.org/2000/svg" viewBox="0 0 32 32">
  <defs>
    <style>
      .cls-1 {
        fill: #231f20;
      }

      .cls-2 {
        fill: #273b54;
      }

      .cls-3 {
        fill: #80b3db;
      }
    </style>
  </defs>
  <circle class="cls-1" cx="16" cy="14.19" r="11.53"/>
  <path class="cls-2" d="M16,26.38c-6.72,0-12.19-5.47-12.19-12.19S9.28,2,16,2s12.19,5.47,12.19,12.19-5.47,12.19-12.19,12.19ZM16,3.32c-5.99,0-10.87,4.88-10.87,10.87s4.88,10.87,10.87,10.87,10.87-4.88,10.87-10.87S21.99,3.32,16,3.32Z"/>
  <g>
    <path class="cls-3" d="M16.61,16.81c.27.06.54.11.81.19.37.11.65-.04.88-.29.66-.7,1-1.53.94-2.5-.03-.55-.36-.76-.9-.6-.15.04-.36.02-.5-.05-.39-.19-.77-.42-1.15-.64-.29-.17-.34-.37-.09-.56.55-.42.71-1.11,1.11-1.63.37-.49.7-1,1.09-1.48.21-.26.56-.17.74.13.09.16.22.31.35.44.66.69,1.22,1.5,1.45,2.39.26,1,.33,2.07.09,3.11-.07.3-.17.6-.3.88-.46.93-.96,1.83-1.74,2.53-.28.25-.3.51-.09.83.32.47.69.79,1.31.68.36-.06.65.08.67.47.03.46,0,.92-.04,1.38-.02.29-.25.34-.5.34-2.14-.02-4.29-.04-6.43-.05-1.01,0-2.02.03-3.03.05-.47,0-.64-.11-.66-.57-.02-.45.02-.9.1-1.34.02-.12.3-.26.46-.26.89,0,1.78.01,2.67.06.86.04.96-.01,1.37-.76.36-.66.77-1.3,1.13-1.96.12-.23.17-.49.27-.77Z"/>
    <path class="cls-3" d="M18.99,5.48c-.03.06-.08.21-.16.35-.26.41-.57.8-.8,1.23-.12.22-.22.51-.17.74.16.73-.04,1.32-.48,1.9-.36.48-.67,1-.95,1.53-.32.59-.74,1.07-1.32,1.42-.17.1-.3.31-.39.5-.13.31-.39.28-.63.3-.12,0-.25-.03-.37-.07-.67-.22-.85-.49-.29-1.06.23-.24.27-.51.1-.79-.14-.23-.1-.41.03-.63.5-.86.98-1.72,1.47-2.59.03-.05.07-.11.08-.17.19-.71.69-1.13,1.33-1.45.2-.1.37-.31.5-.5.33-.49.65-.98.92-1.5.14-.26.28-.34.53-.21.35.19.61.45.6.99Z"/>
    <path class="cls-3" d="M15.15,17.47c-.3-.18-.57-.34-.83-.5-.55-.35-1.09-.71-1.65-1.05-.69-.42-1.38-.82-2.08-1.22-.27-.16-.54-.33-.83-.45-.28-.12-.39-.31-.34-.59.05-.3.1-.6.18-.89.09-.31.3-.4.58-.24,1.35.8,2.69,1.62,4.04,2.41.55.32,1.11.63,1.68.91.34.17.41.37.18.65-.2.24-.38.49-.59.72-.08.09-.21.15-.34.23Z"/>
  </g>
  <path class="cls-2" d="M29.82,14.85c-.35,7.32-6.41,13.18-13.82,13.18S2.53,22.17,2.18,14.85H.2c.35,8.41,7.3,15.15,15.8,15.15s15.45-6.74,15.8-15.15h-1.98Z"/>
</svg>