<?xml version="1.0" encoding="UTF-8"?>
<svg id="Layer_1" xmlns="http://www.w3.org/2000/svg" viewBox="0 0 32 32">
  <defs>
    <style>
      .cls-1 {
        fill: #c6ab78;
      }

      .cls-2 {
        fill: #c6dd9f;
      }

      .cls-3 {
        fill: #00a14b;
      }
    </style>
  </defs>
  <g>
    <path class="cls-2" d="M16,30.5c-8,0-14.5-6.5-14.5-14.5S8,1.5,16,1.5s14.5,6.5,14.5,14.5-6.5,14.5-14.5,14.5Z"/>
    <path class="cls-3" d="M16,3c7.17,0,13,5.83,13,13s-5.83,13-13,13S3,23.17,3,16,8.83,3,16,3M16,0C7.16,0,0,7.16,0,16s7.16,16,16,16,16-7.16,16-16S24.84,0,16,0h0Z"/>
  </g>
  <g>
    <path d="M23.88,22.55c-2.12,0-4.25.06-6.37-.02-1.61-.06-3.22-.25-4.83-.45-1.89-.23-3.77-.52-5.65-.8-.37-.05-.81-.03-1.08-.24-.75-.57-.73-2.01-.06-2.71.1-.11.15-.33.12-.49-.13-.89-.46-1.8.2-2.62.32-.39.63-.8,1.02-1.11.12-.1.5.02.7.14.55.36,1.08.28,1.49-.14.44-.45.73-1.06,1.18-1.49.7-.67,1.45-1.32,2.27-1.83.32-.2.88.01,1.33,0,.17,0,.37-.11.48-.24.15-.18.26-.42.32-.65.26-.94,1.17-.47,1.71-.81.43-.27.89-.49,1.36-.7.7-.32,1.41-.62,2.13-.9.07-.03.3.14.29.21-.04.59-.04,1.2-.22,1.75-.16.51-.07.79.35,1.08.16.11.24.45.23.67-.04.45-.19.88-.24,1.33-.01.11.3.29.27.35-.31.61.21,1.04.48,1.3.45.42,1.11.62,1.7.89.26.12.65.07.81.25.25.27.31.69.51,1.02.13.2.37.32.55.49.08.08.11.21.16.32.02.04,0,.12.02.13.4.17.79.33,1.19.5.15.06.42.09.44.16.11.68.22,1.37.23,2.05,0,.68-.16,1.37-.15,2.05,0,.47-.17.59-.58.58-.79-.01-1.59,0-2.38,0,0-.02,0-.05,0-.07ZM26.05,19.24c-.23-.23-.52-.8-.86-.83-1.09-.07-1.48-.74-1.76-1.62-.06-.17-.19-.37-.34-.46-1.09-.58-1.54-.47-2.47.3-.83.69-1.73,1.28-2.61,1.9-.21.15-.5.39-.69.34-.57-.16-1.11-.45-1.67-.67-2.04-.77-4.08-1.53-6.12-2.3-.47-.18-.93-.38-1.41-.52-.14-.04-.39.02-.49.12-.61.68-.53,1.41-.21,2.21.16.39.46.94-.33,1.17-.25.07-.43.37-.65.56.3.31.56.79.92.88.75.19,1.56.15,2.35.25,1.53.19,3.04.51,4.58.61,2,.12,4.01.07,6.01.1,1.47.02,2.94.05,4.41.09.15,0,.3.12.44.2.09.05.21.19.26.17.11-.05.25-.17.27-.28.13-.66.23-1.32.38-2.23ZM11.53,14.45c-.23.08-.5.17-.76.28-.14.06-.26.18-.38.28.13.12.24.29.39.35.82.34,1.65.62,2.46.97.94.41,1.85.89,2.8,1.28.81.33,1.63.66,2.42-.14.48-.49,1-.99,1.6-1.33.53-.3.66-.64.53-1.16-.03-.12-.11-.3-.2-.32-.17-.03-.39-.02-.52.06-.57.37-1.12.78-1.69,1.17-.24.16-.52.43-.74.4-.76-.12-1.52-.29-2.24-.54-.92-.32-1.81-.73-2.72-1.08-.28-.11-.58-.13-.94-.21ZM19.75,11.89c-.02-.06-.11-.26-.19-.47-.2.1-.4.18-.59.31-.51.35-1,.97-1.52,1.01-.7.05-1.44-.37-2.16-.56-.58-.15-1.21-.46-1.74-.35-.51.11-.93.66-1.37,1.04-.04.04.03.3.11.35.18.11.4.15.61.22.94.3,1.88.64,2.83.9.71.19,1.5.5,2.17.36,1.1-.22,1.85-1.49,1.85-2.81ZM17.4,12.04c.13-.07.31-.13.45-.24.32-.25.59-.57.92-.8.53-.37.44-.86.31-1.35-.02-.08-.31-.16-.44-.12-.59.2-1.19.41-1.75.68-.38.18-.75.42-1.07.7-.1.09-.05.55.04.59.48.22.99.35,1.54.54Z"/>
    <path class="cls-1" d="M12.29,13.22c.18.11.4.15.61.22.94.3,1.88.64,2.83.9.71.19,1.5.5,2.17.36,1.1-.22,1.85-1.49,1.85-2.81-.02-.06-.11-.26-.19-.47-.2.1-.4.18-.59.31-.51.35-1,.97-1.52,1.01-.7.05-1.44-.37-2.16-.56-.58-.15-1.21-.46-1.74-.35-.51.11-.93.66-1.37,1.04-.04.04.03.3.11.35Z"/>
    <path class="cls-1" d="M15.86,11.5c.48.22.99.35,1.54.54.13-.07.31-.13.45-.24.32-.25.59-.57.92-.8.53-.37.44-.86.31-1.35-.02-.08-.31-.16-.44-.12-.59.2-1.19.41-1.75.68-.38.18-.75.42-1.07.7-.1.09-.05.55.04.59Z"/>
    <path class="cls-1" d="M10.78,15.37c.82.34,1.65.62,2.46.97.94.41,1.85.89,2.8,1.28.81.33,1.63.66,2.42-.14.48-.49,1-.99,1.6-1.33.53-.3.66-.64.53-1.16-.03-.12-.11-.3-.2-.32-.17-.03-.39-.02-.52.06-.57.37-1.12.78-1.69,1.17-.24.16-.52.43-.74.4-.76-.12-1.52-.29-2.24-.54-.92-.32-1.81-.73-2.72-1.08-.28-.11-.58-.13-.94-.21-.23.08-.5.17-.76.28-.14.06-.26.18-.38.28.13.12.24.29.39.35Z"/>
    <path class="cls-1" d="M25.19,18.41c-1.09-.07-1.48-.74-1.76-1.62-.06-.17-.19-.37-.34-.46-1.09-.58-1.54-.47-2.47.3-.83.69-1.73,1.28-2.61,1.9-.21.15-.5.39-.69.34-.57-.16-1.11-.45-1.67-.67-2.04-.77-4.08-1.53-6.12-2.3-.47-.18-.93-.38-1.41-.52-.14-.04-.39.02-.49.12-.61.68-.53,1.41-.21,2.21.16.39.46.94-.33,1.17-.25.07-.43.37-.65.56.3.31.56.79.92.88.75.19,1.56.15,2.35.25,1.53.19,3.04.51,4.58.61,2,.12,4.01.07,6.01.1,1.47.02,2.94.05,4.41.09.15,0,.3.12.44.2.09.05.21.19.26.17.11-.05.25-.17.27-.28.13-.66.23-1.32.38-2.23-.23-.23-.52-.8-.86-.83Z"/>
  </g>
</svg>